<svg width="322" height="215" viewBox="0 0 322 215" fill="none" xmlns="http://www.w3.org/2000/svg">
<path d="M31.2889 162.627C39.5879 167.244 34.2896 174.201 27.4309 177.631C24.1034 179.258 21.2961 181.782 19.3248 184.918H310.608C312.323 175.916 321.423 120.978 297.491 78.6088C271.342 32.3128 233.191 24.5968 202.756 24.5968C172.32 24.5968 146.172 49.0308 133.74 66.1775C121.309 83.3241 101.496 91.846 70.4648 88.8711C39.4336 85.8961 18.4289 115.474 17.1429 130.049C15.8569 144.623 22.9899 158.015 31.2889 162.627Z" fill="#3EF47E"/>
<path opacity="0.7" d="M31.2889 162.627C39.5879 167.244 34.2896 174.201 27.4309 177.631C24.1034 179.258 21.2961 181.782 19.3248 184.918H310.608C312.323 175.916 321.423 120.978 297.491 78.6088C271.342 32.3128 233.191 24.5968 202.756 24.5968C172.32 24.5968 146.172 49.0308 133.74 66.1775C121.309 83.3241 101.496 91.846 70.4648 88.8711C39.4336 85.8961 18.4289 115.474 17.1429 130.049C15.8569 144.623 22.9899 158.015 31.2889 162.627Z" fill="#ECFEF2"/>
<path d="M233.956 32.4029C232.901 31.3098 231.075 30.3067 227.903 30.2296C220.762 30.0538 222.691 35.095 220.762 36.3124C218.833 37.5298 218.331 35.6136 216.419 36.831C214.507 38.0485 215.373 40.4833 213.809 40.8305C212.244 41.1777 210.161 39.2659 208.236 40.4833C206.311 41.7007 206.324 42.7424 205.454 42.7424C204.584 42.7424 202.848 42.0436 201.806 42.7424C200.764 43.4411 199.547 44.307 199.547 44.307H218.207" stroke="#134153" stroke-width="0.428667" stroke-linecap="round" stroke-linejoin="round"/>
<path d="M235.921 35.5151L235.381 35.2664C235.298 34.618 235.079 33.9944 234.738 33.436" stroke="#134153" stroke-width="0.428667" stroke-linecap="round" stroke-linejoin="round"/>
<path d="M220.633 44.3069H243.549C243.549 44.3069 244.072 42.7423 242.16 41.6963C240.249 40.6504 239.378 41.5249 238.684 40.6547C238.062 39.8659 240.056 38.0055 236.828 36.0079" stroke="#134153" stroke-width="0.428667" stroke-linecap="round" stroke-linejoin="round"/>
<path d="M54.0452 37.4653C53.4407 36.8352 52.3905 36.2608 50.5687 36.2136C46.4749 36.115 47.568 39.0128 46.4749 39.7116C45.3818 40.4103 45.0732 39.3129 43.9758 40.0116C42.8784 40.7103 43.3757 42.1078 42.4797 42.3093C41.5838 42.5107 40.3793 41.4091 39.2819 42.1078C38.1845 42.8065 38.1845 43.3938 37.683 43.3938C37.1814 43.3938 36.1869 42.9951 35.5868 43.3938C34.9866 43.7925 34.3008 44.294 34.3008 44.294H45.0174" stroke="#134153" stroke-width="0.428667" stroke-linecap="round" stroke-linejoin="round"/>
<path d="M55.1695 39.253L54.8608 39.1115C54.8134 38.738 54.6878 38.3787 54.4922 38.057" stroke="#134153" stroke-width="0.428667" stroke-linecap="round" stroke-linejoin="round"/>
<path d="M46.3867 44.3069H59.5596C59.5596 44.3069 59.8597 43.4067 58.758 42.8066C57.6564 42.2064 57.1634 42.708 56.7605 42.2064C56.3575 41.7049 57.5535 40.6847 55.6974 39.5358" stroke="#134153" stroke-width="0.428667" stroke-linecap="round" stroke-linejoin="round"/>
<path d="M183.143 61.0721H192.214C192.214 61.0721 192.523 60.1462 191.387 59.5289C190.251 58.9116 189.741 59.426 189.329 58.9116C188.917 58.3972 190.461 57.0555 187.37 55.7181C187.37 55.7181 187.164 52.8331 182.942 52.7174C181.12 52.6745 180.297 53.2061 179.855 53.8791" stroke="#134153" stroke-width="0.428667" stroke-linecap="round" stroke-linejoin="round"/>
<path d="M180.375 61.0721H181.884" stroke="#134153" stroke-width="0.428667" stroke-linecap="round" stroke-linejoin="round"/>
<path d="M179.305 55.298C179.238 55.6975 179.03 56.0596 178.718 56.3182C177.587 57.0384 177.278 55.8895 176.146 56.6268C175.015 57.3641 175.529 58.7916 174.603 58.9974C173.677 59.2031 172.438 58.0672 171.307 58.7916C170.175 59.5161 170.175 60.129 169.66 60.129C169.146 60.129 168.113 59.7004 167.517 60.129C166.921 60.5577 166.18 61.055 166.18 61.055H177.754" stroke="#134153" stroke-width="0.428667" stroke-linecap="round" stroke-linejoin="round"/>
<path d="M110.835 44.3069H136.949C136.949 44.3069 137.841 41.6363 134.6 39.8659C131.359 38.0955 129.855 39.5658 128.667 38.0827C127.48 36.5995 131.908 32.7372 123.026 28.8792C123.026 28.8792 122.435 20.5759 110.273 20.2801C105.022 20.1515 102.647 21.6819 101.383 23.628" stroke="#134153" stroke-width="0.428667" stroke-linecap="round" stroke-linejoin="round"/>
<path d="M102.867 44.307H107.214" stroke="#134153" stroke-width="0.428667" stroke-linecap="round" stroke-linejoin="round"/>
<path d="M99.784 27.7218C99.4111 29.0078 99.0124 30.0795 98.0993 30.6582C94.8372 32.7372 93.9456 29.475 90.6834 31.5498C87.4212 33.6245 88.9044 37.7783 86.2338 38.3742C83.5633 38.97 80.0053 35.7036 76.7346 37.7783C73.4639 39.8531 73.4681 41.6363 71.985 41.6363C70.5018 41.6363 67.5354 40.4489 65.7564 41.6363C63.9775 42.8237 61.8984 44.3069 61.8984 44.3069H95.253" stroke="#134153" stroke-width="0.428667" stroke-linecap="round" stroke-linejoin="round"/>
<path d="M265.437 184.918H301.556C300.862 180.499 298.024 181.279 297.647 174.433C297.458 171.004 300.648 166.717 300.373 162.19C300.146 158.461 296.468 154.637 296.181 150.368C295.924 146.51 299.066 142.244 298.753 138.095C298.466 134.168 294.741 130.405 294.406 126.328C294.085 122.35 297.162 118.029 296.798 114.008C296.434 109.987 292.64 106.292 292.237 102.327C291.808 98.2504 294.809 93.8609 294.346 89.96C293.862 85.8191 289.952 82.244 289.425 78.4246C288.833 74.1765 291.603 69.6412 290.955 65.9932C290.162 61.5008 285.979 58.2472 285.1 54.9336C283.458 48.7566 283.664 42.8067 281.726 42.4166C279.66 41.9879 279.189 47.8392 277.624 54.3635C276.835 57.6385 272.746 60.9607 272.073 65.4574C271.528 69.0968 274.422 73.5249 273.946 77.7559C273.517 81.541 269.715 85.1847 269.342 89.3041C268.995 93.1621 272.085 97.4488 271.781 101.5C271.485 105.435 267.79 109.19 267.537 113.189C267.284 117.189 270.469 121.377 270.251 125.325C270.028 129.372 266.393 133.191 266.213 137.088C266.016 141.203 269.265 145.357 269.106 149.18C268.931 153.411 265.355 157.291 265.223 160.99C265.064 165.482 268.36 169.628 268.257 173.048C268.039 180.469 264.64 178.934 264.52 184.905L265.437 184.918Z" fill="#3EF47E"/>
<path opacity="0.3" d="M265.437 184.918H301.556C300.862 180.499 298.024 181.279 297.647 174.433C297.458 171.004 300.648 166.717 300.373 162.19C300.146 158.461 296.468 154.637 296.181 150.368C295.924 146.51 299.066 142.244 298.753 138.095C298.466 134.168 294.741 130.405 294.406 126.328C294.085 122.35 297.162 118.029 296.798 114.008C296.434 109.987 292.64 106.292 292.237 102.327C291.808 98.2504 294.809 93.8609 294.346 89.96C293.862 85.8191 289.952 82.244 289.425 78.4246C288.833 74.1765 291.603 69.6412 290.955 65.9932C290.162 61.5008 285.979 58.2472 285.1 54.9336C283.458 48.7566 283.664 42.8067 281.726 42.4166C279.66 41.9879 279.189 47.8392 277.624 54.3635C276.835 57.6385 272.746 60.9607 272.073 65.4574C271.528 69.0968 274.422 73.5249 273.946 77.7559C273.517 81.541 269.715 85.1847 269.342 89.3041C268.995 93.1621 272.085 97.4488 271.781 101.5C271.485 105.435 267.79 109.19 267.537 113.189C267.284 117.189 270.469 121.377 270.251 125.325C270.028 129.372 266.393 133.191 266.213 137.088C266.016 141.203 269.265 145.357 269.106 149.18C268.931 153.411 265.355 157.291 265.223 160.99C265.064 165.482 268.36 169.628 268.257 173.048C268.039 180.469 264.64 178.934 264.52 184.905L265.437 184.918Z" fill="#ECFEF2"/>
<path d="M280.941 54.2649V183.251" stroke="#134153" stroke-width="0.428667" stroke-linecap="round" stroke-linejoin="round"/>
<path d="M286.585 67.7893L280.704 72.8648L275.895 66.4519" stroke="#134153" stroke-width="0.428667" stroke-linecap="round" stroke-linejoin="round"/>
<path d="M286.585 90.2386L280.704 95.3183L275.895 88.9012" stroke="#134153" stroke-width="0.428667" stroke-linecap="round" stroke-linejoin="round"/>
<path d="M286.585 111.355L280.704 116.434L275.895 110.017" stroke="#134153" stroke-width="0.428667" stroke-linecap="round" stroke-linejoin="round"/>
<path d="M286.585 136.479L280.704 141.554L275.895 135.141" stroke="#134153" stroke-width="0.428667" stroke-linecap="round" stroke-linejoin="round"/>
<path d="M286.585 161.869L280.704 166.949L275.895 160.531" stroke="#134153" stroke-width="0.428667" stroke-linecap="round" stroke-linejoin="round"/>
<path d="M240.34 184.918H271.448C270.852 181.112 268.409 181.785 268.083 175.886C267.92 172.92 270.655 169.242 270.432 165.341C270.235 162.13 267.067 158.834 266.823 155.16C266.6 151.842 269.305 148.16 269.039 144.585C268.79 141.207 265.579 137.962 265.297 134.451C265.018 131.022 267.667 127.305 267.354 123.842C267.041 120.378 263.775 117.193 263.428 113.777C263.072 110.266 265.635 106.489 265.241 103.124C264.812 99.5579 261.46 96.4757 261.006 93.1922C260.495 89.5313 262.879 85.6262 262.322 82.4755C261.64 78.6175 258.035 75.8012 257.276 72.9462C255.866 67.6265 256.042 62.4996 254.374 62.1653C252.595 61.8095 252.188 66.8377 250.838 72.4533C250.16 75.2782 246.637 78.1374 246.058 82.0082C245.591 85.1461 248.081 88.9612 247.674 92.6049C247.305 95.867 244.026 99.0049 243.709 102.55C243.409 105.889 246.071 109.567 245.809 113.057C245.552 116.447 242.38 119.679 242.149 123.126C241.917 126.572 244.673 130.178 244.489 133.577C244.296 137.062 241.171 140.354 241.013 143.711C240.841 147.256 243.64 150.835 243.503 154.123C243.353 157.771 240.271 161.11 240.155 164.299C240.018 168.157 242.86 171.737 242.774 174.682C242.581 181.077 239.654 179.753 239.551 184.897L240.34 184.918Z" fill="#3EF47E"/>
<path opacity="0.3" d="M240.34 184.918H271.448C270.852 181.112 268.409 181.785 268.083 175.886C267.92 172.92 270.655 169.242 270.432 165.341C270.235 162.13 267.067 158.834 266.823 155.16C266.6 151.842 269.305 148.16 269.039 144.585C268.79 141.207 265.579 137.962 265.297 134.451C265.018 131.022 267.667 127.305 267.354 123.842C267.041 120.378 263.775 117.193 263.428 113.777C263.072 110.266 265.635 106.489 265.241 103.124C264.812 99.5579 261.46 96.4757 261.006 93.1922C260.495 89.5313 262.879 85.6262 262.322 82.4755C261.64 78.6175 258.035 75.8012 257.276 72.9462C255.866 67.6265 256.042 62.4996 254.374 62.1653C252.595 61.8095 252.188 66.8377 250.838 72.4533C250.16 75.2782 246.637 78.1374 246.058 82.0082C245.591 85.1461 248.081 88.9612 247.674 92.6049C247.305 95.867 244.026 99.0049 243.709 102.55C243.409 105.889 246.071 109.567 245.809 113.057C245.552 116.447 242.38 119.679 242.149 123.126C241.917 126.572 244.673 130.178 244.489 133.577C244.296 137.062 241.171 140.354 241.013 143.711C240.841 147.256 243.64 150.835 243.503 154.123C243.353 157.771 240.271 161.11 240.155 164.299C240.018 168.157 242.86 171.737 242.774 174.682C242.581 181.077 239.654 179.753 239.551 184.897L240.34 184.918Z" fill="#ECFEF2"/>
<path d="M253.691 72.3804V183.482" stroke="#134153" stroke-width="0.428667" stroke-linecap="round" stroke-linejoin="round"/>
<path d="M258.556 84.0274L253.489 88.4041L249.344 82.8785" stroke="#134153" stroke-width="0.428667" stroke-linecap="round" stroke-linejoin="round"/>
<path d="M258.556 103.369L253.489 107.741L249.344 102.216" stroke="#134153" stroke-width="0.428667" stroke-linecap="round" stroke-linejoin="round"/>
<path d="M258.556 121.553L253.489 125.929L249.344 120.404" stroke="#134153" stroke-width="0.428667" stroke-linecap="round" stroke-linejoin="round"/>
<path d="M258.556 143.196L253.489 147.568L249.344 142.043" stroke="#134153" stroke-width="0.428667" stroke-linecap="round" stroke-linejoin="round"/>
<path d="M258.556 165.067L253.489 169.439L249.344 163.914" stroke="#134153" stroke-width="0.428667" stroke-linecap="round" stroke-linejoin="round"/>
<path d="M175.652 128.986H175.322C174.969 128.985 174.622 128.901 174.307 128.74C173.993 128.579 173.722 128.346 173.515 128.06C173.308 127.774 173.171 127.443 173.117 127.095C173.062 126.746 173.091 126.389 173.2 126.054C173.629 124.674 174.405 123.28 175.674 123.053C178.306 122.624 185.533 124.806 185.533 126.341C185.533 127.876 185.533 128.532 184.676 128.532H179.18L174.799 133.35L174.705 133.273C174.479 133.083 174.297 132.846 174.172 132.579C174.047 132.312 173.983 132.02 173.983 131.725C173.983 131.43 174.047 131.139 174.172 130.871C174.297 130.604 174.479 130.367 174.705 130.178C175.085 129.836 175.406 129.433 175.652 128.986Z" fill="#134153" stroke="#134153" stroke-width="0.428667" stroke-linecap="round" stroke-linejoin="round"/>
<path d="M225.16 169.752H297.892C297.892 169.752 308.407 162.743 306.217 144.341C304.026 125.938 292.195 138.185 287.814 150.462H255.394C255.394 150.462 248.381 136.44 236.991 138.194C225.602 139.947 225.16 169.752 225.16 169.752Z" fill="#134153" stroke="#134153" stroke-width="0.428667" stroke-linecap="round" stroke-linejoin="round"/>
<path d="M243.05 166.087C243.05 160.686 241.502 155.799 239.024 152.37V147.226H230.241C223.172 147.226 217.445 155.657 217.445 166.057C217.445 176.456 223.172 184.888 230.241 184.888H239.007V179.744C241.485 176.358 243.05 171.492 243.05 166.087Z" fill="#134153" stroke="#134153" stroke-width="0.428667" stroke-linecap="round" stroke-linejoin="round"/>
<path d="M239.003 184.918C246.07 184.918 251.798 176.487 251.798 166.087C251.798 155.687 246.07 147.256 239.003 147.256C231.936 147.256 226.207 155.687 226.207 166.087C226.207 176.487 231.936 184.918 239.003 184.918Z" fill="#134153"/>
<mask id="mask0_1026_8295" style="mask-type:luminance" maskUnits="userSpaceOnUse" x="226" y="147" width="26" height="38">
<path d="M239.003 184.918C246.07 184.918 251.798 176.487 251.798 166.087C251.798 155.687 246.07 147.256 239.003 147.256C231.936 147.256 226.207 155.687 226.207 166.087C226.207 176.487 231.936 184.918 239.003 184.918Z" fill="white"/>
</mask>
<g mask="url(#mask0_1026_8295)">
<path opacity="0.2" d="M239.003 184.918C246.07 184.918 251.798 176.487 251.798 166.087C251.798 155.687 246.07 147.256 239.003 147.256C231.936 147.256 226.207 155.687 226.207 166.087C226.207 176.487 231.936 184.918 239.003 184.918Z" fill="#ECFEF2" stroke="#134153" stroke-width="0.428667" stroke-linecap="round" stroke-linejoin="round"/>
</g>
<path d="M239.003 184.918C246.07 184.918 251.798 176.487 251.798 166.087C251.798 155.687 246.07 147.256 239.003 147.256C231.936 147.256 226.207 155.687 226.207 166.087C226.207 176.487 231.936 184.918 239.003 184.918Z" stroke="#134153" stroke-width="0.428667" stroke-linecap="round" stroke-linejoin="round"/>
<path d="M163.996 147.256H155.706C149.031 147.256 143.617 155.687 143.617 166.087C143.617 176.486 149.031 184.918 155.706 184.918H163.996C170.675 184.918 176.089 176.486 176.089 166.087C176.089 155.687 170.675 147.256 163.996 147.256Z" fill="#134153" stroke="#134153" stroke-width="0.428667" stroke-linecap="round" stroke-linejoin="round"/>
<path d="M239.003 181.112C244.64 181.112 249.21 174.385 249.21 166.087C249.21 157.789 244.64 151.062 239.003 151.062C233.367 151.062 228.797 157.789 228.797 166.087C228.797 174.385 233.367 181.112 239.003 181.112Z" fill="#ECFEF2" stroke="#134153" stroke-width="0.428667" stroke-linecap="round" stroke-linejoin="round"/>
<path d="M302.946 166.087C302.946 160.686 301.96 155.799 300.374 152.37V147.226H292.641C288.144 147.226 284.496 155.658 284.496 166.057C284.496 176.456 288.14 184.888 292.641 184.888H300.382V179.744C301.96 176.358 302.946 171.492 302.946 166.087Z" fill="#134153" stroke="#134153" stroke-width="0.428667" stroke-linecap="round" stroke-linejoin="round"/>
<path d="M300.383 184.918C304.878 184.918 308.523 176.487 308.523 166.087C308.523 155.687 304.878 147.256 300.383 147.256C295.887 147.256 292.242 155.687 292.242 166.087C292.242 176.487 295.887 184.918 300.383 184.918Z" fill="#134153"/>
<mask id="mask1_1026_8295" style="mask-type:luminance" maskUnits="userSpaceOnUse" x="292" y="147" width="17" height="38">
<path d="M300.386 184.918C304.882 184.918 308.527 176.487 308.527 166.087C308.527 155.687 304.882 147.256 300.386 147.256C295.891 147.256 292.246 155.687 292.246 166.087C292.246 176.487 295.891 184.918 300.386 184.918Z" fill="white"/>
</mask>
<g mask="url(#mask1_1026_8295)">
<path opacity="0.2" d="M300.386 184.918C304.882 184.918 308.527 176.487 308.527 166.087C308.527 155.687 304.882 147.256 300.386 147.256C295.891 147.256 292.246 155.687 292.246 166.087C292.246 176.487 295.891 184.918 300.386 184.918Z" fill="#ECFEF2" stroke="#134153" stroke-width="0.428667" stroke-linecap="round" stroke-linejoin="round"/>
</g>
<path d="M300.383 184.918C304.878 184.918 308.523 176.487 308.523 166.087C308.523 155.687 304.878 147.256 300.383 147.256C295.887 147.256 292.242 155.687 292.242 166.087C292.242 176.487 295.887 184.918 300.383 184.918Z" stroke="#134153" stroke-width="0.428667" stroke-linecap="round" stroke-linejoin="round"/>
<path d="M300.385 181.112C303.972 181.112 306.879 174.385 306.879 166.087C306.879 157.789 303.972 151.062 300.385 151.062C296.798 151.062 293.891 157.789 293.891 166.087C293.891 174.385 296.798 181.112 300.385 181.112Z" fill="#ECFEF2" stroke="#134153" stroke-width="0.428667" stroke-linecap="round" stroke-linejoin="round"/>
<path d="M228.222 170.687C228.222 155.683 233.435 143.518 239.869 143.518C246.304 143.518 251.512 155.683 251.512 170.687C251.512 171.514 251.512 172.324 251.465 173.13H292.947C292.947 172.324 292.912 171.514 292.912 170.687C292.912 155.683 296.71 143.518 301.396 143.518C304.525 143.518 307.256 148.953 308.726 157.033V134.871C308.726 133.861 308.372 132.883 307.726 132.106C307.08 131.329 306.183 130.803 305.189 130.619L304.988 130.58C302.112 130.006 296.938 124.545 288.887 117.643C280.837 110.742 273.648 110.167 273.648 110.167H201.036C199.664 110.165 198.33 110.617 197.243 111.453L172.47 130.572C172.47 130.572 150.329 134.884 145.443 139.771C140.556 144.658 141.13 173.121 141.13 173.121H228.274C228.244 172.324 228.222 171.514 228.222 170.687Z" fill="#ECFEF2" stroke="#134153" stroke-width="0.428667" stroke-linecap="round" stroke-linejoin="round"/>
<path d="M255.827 110.167H201.039C199.667 110.165 198.333 110.617 197.245 111.453L172.473 130.572H242.62L255.827 110.167Z" fill="#ECFEF2" stroke="#134153" stroke-width="0.428667" stroke-linecap="round" stroke-linejoin="round"/>
<path d="M227.12 138.271C223.177 138.322 216.271 138.584 213.279 139.78C210.803 140.757 208.401 141.91 206.09 143.231H220.176L227.12 138.271Z" fill="#134153" stroke="#134153" stroke-width="0.428667" stroke-linecap="round" stroke-linejoin="round"/>
<path d="M221.042 147.543V144.971H206.09L208.799 147.461C208.755 147.484 208.715 147.513 208.679 147.547L221.042 147.543Z" fill="#134153" stroke="#134153" stroke-width="0.428667" stroke-linecap="round" stroke-linejoin="round"/>
<path d="M222.473 143.805V147.564C223.054 147.513 223.615 147.33 224.114 147.027C224.613 146.725 225.035 146.311 225.349 145.82C226.785 143.518 230.021 138.271 230.021 138.271L222.473 143.805Z" fill="#134153" stroke="#134153" stroke-width="0.428667" stroke-linecap="round" stroke-linejoin="round"/>
<path d="M146.816 147.461L149.521 144.962H143.142C142.941 145.768 142.761 146.634 142.598 147.534H146.936C146.898 147.507 146.858 147.482 146.816 147.461Z" fill="#134153" stroke="#134153" stroke-width="0.428667" stroke-linecap="round" stroke-linejoin="round"/>
<path d="M144.679 140.774C144.241 141.552 143.889 142.376 143.629 143.23H149.523C147.953 142.326 146.336 141.506 144.679 140.774Z" fill="#134153" stroke="#134153" stroke-width="0.428667" stroke-linecap="round" stroke-linejoin="round"/>
<path d="M242.617 130.581H285.167C285.167 130.581 291.207 128.566 289.479 121.094C288.896 118.556 276.829 112.757 275.106 112.757H254.388L242.617 130.581Z" fill="#134153"/>
<mask id="mask2_1026_8295" style="mask-type:luminance" maskUnits="userSpaceOnUse" x="242" y="112" width="48" height="19">
<path d="M242.621 130.58H285.171C285.171 130.58 291.21 128.566 289.483 121.094C288.9 118.556 276.833 112.756 275.11 112.756H254.392L242.621 130.58Z" fill="white"/>
</mask>
<g mask="url(#mask2_1026_8295)">
<path opacity="0.2" d="M242.621 130.58H285.171C285.171 130.58 291.21 128.566 289.483 121.094C288.9 118.556 276.833 112.756 275.11 112.756H254.392L242.621 130.58Z" fill="#ECFEF2" stroke="#134153" stroke-width="0.428667" stroke-linecap="round" stroke-linejoin="round"/>
</g>
<path d="M242.617 130.581H285.167C285.167 130.581 291.207 128.566 289.479 121.094C288.896 118.556 276.829 112.757 275.106 112.757H254.388L242.617 130.581Z" stroke="#134153" stroke-width="0.428667" stroke-linecap="round" stroke-linejoin="round"/>
<path d="M195.55 112.757L172.453 130.581H242.604L254.153 112.757H195.55Z" fill="#134153" stroke="#134153" stroke-width="0.428667" stroke-linecap="round" stroke-linejoin="round"/>
<path d="M150.598 143.805V149.845L154.91 153.004H189.701L197.751 149.558V143.805H150.598Z" fill="#134153" stroke="#134153" stroke-width="0.428667" stroke-linecap="round" stroke-linejoin="round"/>
<path opacity="0.3" d="M152.205 143.805H150.598V145.412H152.205V143.805Z" fill="#ECFEF2" stroke="#134153" stroke-width="0.428667" stroke-linecap="round" stroke-linejoin="round"/>
<path opacity="0.3" d="M153.986 145.584H152.379V147.191H153.986V145.584Z" fill="#ECFEF2" stroke="#134153" stroke-width="0.428667" stroke-linecap="round" stroke-linejoin="round"/>
<path opacity="0.3" d="M155.76 147.363H154.152V148.97H155.76V147.363Z" fill="#ECFEF2" stroke="#134153" stroke-width="0.428667" stroke-linecap="round" stroke-linejoin="round"/>
<path opacity="0.3" d="M157.537 149.137H155.93V150.745H157.537V149.137Z" fill="#ECFEF2" stroke="#134153" stroke-width="0.428667" stroke-linecap="round" stroke-linejoin="round"/>
<path opacity="0.3" d="M197.428 143.805H195.82V145.412H197.428V143.805Z" fill="#ECFEF2" stroke="#134153" stroke-width="0.428667" stroke-linecap="round" stroke-linejoin="round"/>
<path opacity="0.3" d="M195.654 145.584H194.047V147.191H195.654V145.584Z" fill="#ECFEF2" stroke="#134153" stroke-width="0.428667" stroke-linecap="round" stroke-linejoin="round"/>
<path opacity="0.3" d="M193.873 147.363H192.266V148.97H193.873V147.363Z" fill="#ECFEF2" stroke="#134153" stroke-width="0.428667" stroke-linecap="round" stroke-linejoin="round"/>
<path opacity="0.3" d="M192.096 149.137H190.488V150.745H192.096V149.137Z" fill="#ECFEF2" stroke="#134153" stroke-width="0.428667" stroke-linecap="round" stroke-linejoin="round"/>
<path opacity="0.3" d="M160.006 149.137H158.398V150.745H160.006V149.137Z" fill="#ECFEF2" stroke="#134153" stroke-width="0.428667" stroke-linecap="round" stroke-linejoin="round"/>
<path opacity="0.3" d="M162.475 149.137H160.867V150.745H162.475V149.137Z" fill="#ECFEF2" stroke="#134153" stroke-width="0.428667" stroke-linecap="round" stroke-linejoin="round"/>
<path opacity="0.3" d="M164.943 149.137H163.336V150.745H164.943V149.137Z" fill="#ECFEF2" stroke="#134153" stroke-width="0.428667" stroke-linecap="round" stroke-linejoin="round"/>
<path opacity="0.3" d="M167.412 149.137H165.805V150.745H167.412V149.137Z" fill="#ECFEF2" stroke="#134153" stroke-width="0.428667" stroke-linecap="round" stroke-linejoin="round"/>
<path opacity="0.3" d="M169.881 149.137H168.273V150.745H169.881V149.137Z" fill="#ECFEF2" stroke="#134153" stroke-width="0.428667" stroke-linecap="round" stroke-linejoin="round"/>
<path opacity="0.3" d="M172.35 149.137H170.742V150.745H172.35V149.137Z" fill="#ECFEF2" stroke="#134153" stroke-width="0.428667" stroke-linecap="round" stroke-linejoin="round"/>
<path opacity="0.3" d="M174.818 149.137H173.211V150.745H174.818V149.137Z" fill="#ECFEF2" stroke="#134153" stroke-width="0.428667" stroke-linecap="round" stroke-linejoin="round"/>
<path opacity="0.3" d="M177.287 149.137H175.68V150.745H177.287V149.137Z" fill="#ECFEF2" stroke="#134153" stroke-width="0.428667" stroke-linecap="round" stroke-linejoin="round"/>
<path opacity="0.3" d="M179.756 149.137H178.148V150.745H179.756V149.137Z" fill="#ECFEF2" stroke="#134153" stroke-width="0.428667" stroke-linecap="round" stroke-linejoin="round"/>
<path opacity="0.3" d="M182.225 149.137H180.617V150.745H182.225V149.137Z" fill="#ECFEF2" stroke="#134153" stroke-width="0.428667" stroke-linecap="round" stroke-linejoin="round"/>
<path opacity="0.3" d="M184.693 149.137H183.086V150.745H184.693V149.137Z" fill="#ECFEF2" stroke="#134153" stroke-width="0.428667" stroke-linecap="round" stroke-linejoin="round"/>
<path opacity="0.3" d="M187.162 149.137H185.555V150.745H187.162V149.137Z" fill="#ECFEF2" stroke="#134153" stroke-width="0.428667" stroke-linecap="round" stroke-linejoin="round"/>
<path opacity="0.3" d="M189.627 149.137H188.02V150.745H189.627V149.137Z" fill="#ECFEF2" stroke="#134153" stroke-width="0.428667" stroke-linecap="round" stroke-linejoin="round"/>
<path d="M214.424 160.48H142.837L141.881 152.811C141.452 157.025 141.242 161.517 141.152 165.208L141.401 166.233L142.837 163.356H148.98L145.122 166.52H202.049L200.017 163.356H214.411L218.437 165.658H221.313V150.994L214.424 160.48Z" fill="#134153" stroke="#134153" stroke-width="0.428667" stroke-linecap="round" stroke-linejoin="round"/>
<path d="M270.65 130.581H273.055C272.802 127.057 271.795 119.285 267.847 112.757H265.438C266.822 115.762 270.11 123.508 270.65 130.581Z" fill="#134153" stroke="#134153" stroke-width="0.428667" stroke-linecap="round" stroke-linejoin="round"/>
<path d="M218.805 117.592L219.684 120.027C218.601 121.056 217.97 122.473 217.93 123.966V130.602H212.538L217.052 117.613L218.805 117.592ZM193.612 120.884C189.913 123.135 184.323 128.103 181.609 130.585H199.613L208.928 116.285L202.794 116.713C199.565 117.697 196.478 119.099 193.612 120.884ZM230.855 119.131L228.664 118.702H225.595L224.738 119.56C224.738 119.56 226.928 119.778 227.147 121.094C227.297 122.403 227.37 123.72 227.365 125.038H228.9C228.9 125.038 228.9 122.629 229.993 121.531C230.614 120.907 231.272 120.321 231.965 119.778L230.855 119.131Z" fill="#73877B" stroke="#134153" stroke-width="0.428667" stroke-linecap="round" stroke-linejoin="round"/>
<path d="M257.586 128.986H257.23C256.876 128.988 256.525 128.907 256.208 128.747C255.892 128.588 255.617 128.355 255.408 128.069C255.198 127.782 255.06 127.45 255.004 127.1C254.949 126.75 254.977 126.391 255.087 126.054C255.516 124.674 256.292 123.28 257.565 123.053C260.192 122.624 267.424 124.806 267.424 126.341C267.424 127.876 267.424 128.532 266.567 128.532H261.088L256.707 133.35L256.617 133.273C256.392 133.083 256.211 132.846 256.086 132.578C255.962 132.311 255.898 132.02 255.898 131.725C255.898 131.43 255.962 131.139 256.086 130.872C256.211 130.604 256.392 130.368 256.617 130.178C257.005 129.838 257.333 129.435 257.586 128.986Z" fill="#ECFEF2" stroke="#134153" stroke-width="0.428667" stroke-linecap="round" stroke-linejoin="round"/>
<path d="M256.618 133.29L256.708 133.367L261.089 128.549H266.567C267.291 128.549 267.424 128.09 267.424 127.07H255.027C255.103 127.601 255.367 128.087 255.772 128.439C256.176 128.791 256.694 128.985 257.231 128.986H257.586C257.332 129.442 257.002 129.85 256.609 130.195C256.384 130.385 256.204 130.623 256.08 130.89C255.956 131.158 255.893 131.449 255.894 131.744C255.894 132.039 255.96 132.33 256.085 132.597C256.21 132.864 256.392 133.1 256.618 133.29Z" fill="#134153" stroke="#134153" stroke-width="0.428667" stroke-linecap="round" stroke-linejoin="round"/>
<path d="M270.133 135.875H265.203V136.933H270.133V135.875Z" fill="#134153" stroke="#134153" stroke-width="0.428667" stroke-linecap="round" stroke-linejoin="round"/>
<path d="M292.328 135.874H287.398V136.933H292.328V135.874Z" fill="#134153" stroke="#134153" stroke-width="0.428667" stroke-linecap="round" stroke-linejoin="round"/>
<path d="M292.68 131.648C292.68 131.648 296.25 134.07 298.317 142.566C298.317 142.566 289.512 143.625 289.512 167.926" stroke="#134153" stroke-width="0.428667" stroke-linecap="round" stroke-linejoin="round"/>
<path d="M288.454 168.985H251.49C251.49 169.546 251.516 170.116 251.516 170.699C251.516 171.527 251.516 172.337 251.469 173.143H292.951C292.951 172.337 292.917 171.527 292.917 170.699V170.532L288.454 168.985Z" fill="#134153" stroke="#134153" stroke-width="0.428667" stroke-linecap="round" stroke-linejoin="round"/>
<path d="M228.225 170.687C228.225 170.116 228.225 169.546 228.25 168.972H141.094C141.094 171.501 141.094 173.117 141.094 173.117H228.276C228.246 172.324 228.225 171.514 228.225 170.687Z" fill="#134153" stroke="#134153" stroke-width="0.428667" stroke-linecap="round" stroke-linejoin="round"/>
<path d="M307.181 133.744C306.743 133.744 306.312 133.858 305.932 134.075C305.551 134.292 305.233 134.604 305.01 134.98C304.786 135.357 304.665 135.785 304.657 136.223C304.649 136.661 304.755 137.093 304.964 137.478L308.728 144.379V134.871C308.724 134.496 308.669 134.122 308.565 133.761H307.181V133.744Z" fill="#134153" stroke="#134153" stroke-width="0.428667" stroke-linecap="round" stroke-linejoin="round"/>
<path d="M273.352 134.241C273.352 134.241 281.239 145.635 273.352 164.912" stroke="#134153" stroke-width="0.428667" stroke-linecap="round" stroke-linejoin="round"/>
<path d="M24.3203 184.918H312.067" stroke="#134153" stroke-width="0.428667" stroke-linecap="round" stroke-linejoin="round"/>
<path d="M19.3242 184.918H22.1663" stroke="#134153" stroke-width="0.428667" stroke-linecap="round" stroke-linejoin="round"/>
<path d="M12 184.918H16.3295" stroke="#134153" stroke-width="0.428667" stroke-linecap="round" stroke-linejoin="round"/>
<path d="M30.0537 91.9145L28.3391 92.3432L29.7408 77.2627L31.7855 74.785V71.8787L25.5399 73.3876L26.1786 77.1598C26.1786 77.1598 22.5178 95.1638 22.3206 96.3298C22.1234 97.4958 22.6464 100.531 22.9679 100.638C23.2894 100.745 31.1554 98.8075 31.1554 98.8075L30.0537 91.9145Z" fill="#ECFEF2" stroke="#134153" stroke-width="0.428667" stroke-linecap="round" stroke-linejoin="round"/>
<path d="M71.5168 83.6242L81.5347 66.1775L81.3161 60.7891L81.9634 59.2845L88.1019 58.9587C88.1019 58.9587 86.8159 63.4812 86.8159 63.807C86.8159 64.1328 84.8784 67.2363 84.8784 67.2363L76.9051 88.3438L71.1953 89.9771L71.5168 83.6242Z" fill="#ECFEF2" stroke="#134153" stroke-width="0.428667" stroke-linecap="round" stroke-linejoin="round"/>
<path d="M19.7539 75.7624L149.979 43.0851" stroke="#134153" stroke-width="1.286" stroke-linecap="round" stroke-linejoin="round"/>
<path d="M83.2599 60.6819L87.8895 60.2532L87.9967 57.8827H82.2911L82.1797 59.8203L83.2599 60.6819Z" fill="#ECFEF2" stroke="#134153" stroke-width="0.428667" stroke-linecap="round" stroke-linejoin="round"/>
<path d="M82.1787 64.4544L79.8125 60.0348L81.21 57.6686L84.0134 56.3826C84.1194 56.4156 84.2166 56.4719 84.298 56.5474C84.3794 56.6228 84.4429 56.7154 84.484 56.8185C84.525 56.9216 84.5426 57.0325 84.5354 57.1432C84.5281 57.254 84.4963 57.3617 84.4421 57.4585C84.1206 58.3159 82.5045 58.9674 82.5045 58.9674C82.5045 58.9674 83.7905 61.2308 83.902 62.5211" fill="#ECFEF2"/>
<path d="M82.1787 64.4544L79.8125 60.0348L81.21 57.6686L84.0134 56.3826C84.1194 56.4156 84.2166 56.4719 84.298 56.5474C84.3794 56.6228 84.4429 56.7154 84.484 56.8185C84.525 56.9216 84.5426 57.0325 84.5354 57.1432C84.5281 57.254 84.4963 57.3617 84.4421 57.4585C84.1206 58.3159 82.5045 58.9674 82.5045 58.9674C82.5045 58.9674 83.7905 61.2308 83.902 62.5211" stroke="#134153" stroke-width="0.428667" stroke-linecap="round" stroke-linejoin="round"/>
<path d="M41.6675 180.76C41.6675 180.76 36.9521 183.812 36.3949 185.754C35.8376 187.696 37.6466 188.249 39.8628 187.417C42.079 186.586 44.4409 184.086 44.4409 184.086C44.4409 184.086 45.967 184.644 46.3828 182.839C46.7986 181.034 45.4097 178.955 45.4097 178.955L41.6675 180.76Z" fill="#ECFEF2" stroke="#134153" stroke-width="0.428667" stroke-linecap="round" stroke-linejoin="round"/>
<path d="M66.3555 180.344C66.3555 180.344 68.1602 184.086 70.3806 185.197C72.6011 186.307 74.7145 186.483 74.5387 184.644C74.2644 181.729 68.7131 178.818 68.7131 178.818L66.3555 180.344Z" fill="#ECFEF2" stroke="#134153" stroke-width="0.428667" stroke-linecap="round" stroke-linejoin="round"/>
<path d="M39.2109 121.857L39.3095 148.717C39.3095 148.717 39.4467 158.705 39.5882 165.362C39.7296 172.02 41.2514 181.454 41.2514 181.454C42.285 181.774 43.3835 181.821 44.4407 181.592C44.8722 181.486 45.2728 181.281 45.6102 180.992C45.9476 180.703 46.2121 180.339 46.3825 179.928L47.4928 163.562L49.7218 138.888L51.3851 139.317L57.9051 160.398L65.1153 179.958C65.1153 179.958 65.2524 180.927 66.6413 180.927C68.0302 180.927 69.8306 179.264 69.8306 179.264C69.8306 179.264 67.3358 161.65 66.7785 158.877C66.5245 157.461 66.1546 156.069 65.6725 154.714L58.5952 122.813L58.0423 121.84L39.8625 120.425L39.2109 121.857Z" fill="#134153" stroke="#134153" stroke-width="0.428667" stroke-linecap="round" stroke-linejoin="round"/>
<path d="M46.7473 87.9323L39.0013 88.4681L29.5234 91.7003L31.2381 101.825L38.3454 100.308L39.2027 121.848C39.2027 121.848 39.9572 122.706 43.9181 123.464C47.8789 124.223 53.3959 123.572 55.4449 123.246C57.4939 122.92 58.1369 122.389 58.4456 121.96C58.7542 121.531 62.5779 97.4058 62.5779 97.4058L71.8414 94.6066L71.73 82.8698L63.4353 85.6689L51.2654 87.9323H46.7473Z" fill="#ECFEF2" stroke="#134153" stroke-width="0.428667" stroke-linecap="round" stroke-linejoin="round"/>
<path d="M45.6211 84.2971L46.0669 88.4294L49.119 96.7541L53.3157 88.9995L53.5043 87.6021L47.1471 81.8794L45.6211 84.2971Z" fill="#ECFEF2" stroke="#134153" stroke-width="0.428667" stroke-linecap="round" stroke-linejoin="round"/>
<path d="M48.5117 86.7834L51.4995 91.8417L53.3385 88.2752L48.5117 86.7834Z" fill="#134153" stroke="#134153" stroke-width="0.428667" stroke-linecap="round" stroke-linejoin="round"/>
<path d="M55.9192 75.3337C55.9192 75.3337 56.425 79.466 56.3007 80.6106C56.1764 81.7551 56.1721 84.8672 55.8721 85.8874C55.572 86.9077 55.5548 87.9193 54.8518 88.3008C54.1488 88.6824 51.4868 88.3008 50.6595 88.2365C49.8321 88.1722 48.3704 87.032 48.0532 86.269C47.736 85.5059 47.0372 83.2169 47.0372 83.2169C47.0372 83.2169 45.8927 79.7189 45.8284 79.466C45.7641 79.2131 45.4469 76.8597 47.2258 75.608C49.0048 74.3563 51.7397 74.322 52.627 74.322C53.5144 74.322 55.9192 75.3337 55.9192 75.3337Z" fill="#ECFEF2" stroke="#134153" stroke-width="0.428667" stroke-linecap="round" stroke-linejoin="round"/>
<path d="M55.3191 84.7344C55.3191 84.7344 54.0588 85.2402 53.1758 84.7987" stroke="#134153" stroke-width="0.428667" stroke-linecap="round" stroke-linejoin="round"/>
<path d="M52.7246 81.0822C52.7246 81.3951 52.6088 81.648 52.4717 81.648C52.3345 81.648 52.2188 81.3951 52.2188 81.0822C52.2188 80.7693 52.3345 80.5164 52.4717 80.5164C52.6088 80.5164 52.7246 80.7693 52.7246 81.0822Z" fill="#134153"/>
<path d="M56.0444 79.0203L54.9642 80.0362L55.6629 83.4698L53.6953 83.6627" stroke="#134153" stroke-width="0.428667" stroke-linecap="round" stroke-linejoin="round"/>
<path d="M53.367 79.4447L51.168 79.9205" stroke="#134153" stroke-width="0.428667" stroke-linecap="round" stroke-linejoin="round"/>
<path d="M47.2751 79.6548C47.2751 79.6548 48.5611 78.7675 48.8654 78.5746C49.1698 78.3817 48.2267 77.1128 48.8654 76.2255C49.5041 75.3381 53.0578 75.4625 54.5196 75.4625C55.9813 75.4625 57.4431 75.5268 56.8729 73.362C56.3028 71.1972 53.5036 69.997 51.9133 69.8684C50.3229 69.7398 47.1979 71.3301 47.1979 71.3301C47.1979 71.3301 44.7845 71.7588 43.3399 72.7919C41.8953 73.825 41.5567 76.2212 42.5769 78.1331C43.5971 80.0449 44.163 80.9923 44.163 80.9923L47.0865 80.3578L47.2751 79.6548Z" fill="#73877B" stroke="#134153" stroke-width="0.428667" stroke-linecap="round" stroke-linejoin="round"/>
<path d="M45.3946 79.2132C45.3946 79.2132 45.5575 72.5389 47.2078 71.33C47.2078 71.33 45.0645 70.8199 43.6499 72.5389C43.1534 75.1121 43.3728 77.7722 44.2843 80.2292L45.5703 80.2935L45.3946 79.2132Z" fill="#134153" stroke="#134153" stroke-width="0.428667" stroke-linecap="round" stroke-linejoin="round"/>
<path d="M48.1665 81.978C48.1665 82.5249 48.0044 83.0594 47.7006 83.5141C47.3967 83.9688 46.9649 84.3232 46.4597 84.5325C45.9545 84.7417 45.3986 84.7965 44.8622 84.6898C44.3259 84.5831 43.8332 84.3198 43.4465 83.9331C43.0599 83.5464 42.7965 83.0538 42.6898 82.5174C42.5832 81.9811 42.6379 81.4252 42.8472 80.92C43.0565 80.4147 43.4108 79.9829 43.8655 79.6791C44.3202 79.3753 44.8548 79.2131 45.4016 79.2131C46.1349 79.2131 46.8382 79.5044 47.3567 80.023C47.8752 80.5415 48.1665 81.2447 48.1665 81.978Z" fill="#134153" stroke="#134153" stroke-width="0.428667" stroke-linecap="round" stroke-linejoin="round"/>
<path d="M25.5352 72.316L26.1824 75.008L31.5665 73.392L31.0307 70.3741L25.5352 72.316Z" fill="#ECFEF2" stroke="#134153" stroke-width="0.428667" stroke-linecap="round" stroke-linejoin="round"/>
<path d="M28.9817 76.3026C27.9057 75.1195 29.3032 74.0435 29.3032 74.0435L27.9057 74.1593L27.6914 73.4048L31.6737 72.3289C31.6737 72.3289 31.4594 74.3736 31.7809 74.8023C32.1024 75.2309 29.7361 77.28 29.7361 77.28" fill="#ECFEF2"/>
<path d="M28.9817 76.3026C27.9057 75.1195 29.3032 74.0435 29.3032 74.0435L27.9057 74.1593L27.6914 73.4048L31.6737 72.3289C31.6737 72.3289 31.4594 74.3736 31.7809 74.8023C32.1024 75.2309 29.7361 77.28 29.7361 77.28" stroke="#134153" stroke-width="0.428667" stroke-linecap="round" stroke-linejoin="round"/>
<path d="M155.248 67.8835L152.715 68.0678C152.424 68.0902 152.135 68.0006 151.908 67.8173C151.681 67.634 151.533 67.371 151.493 67.0819L149.38 51.8685C149.361 51.7142 149.373 51.5576 149.417 51.4082C149.46 51.2589 149.533 51.1199 149.632 50.9997C149.73 50.8794 149.852 50.7805 149.99 50.7087C150.128 50.637 150.279 50.5941 150.434 50.5825L154.485 50.2867C154.642 50.2756 154.799 50.2967 154.948 50.3489C155.096 50.4011 155.232 50.4832 155.348 50.5901C155.463 50.697 155.555 50.8264 155.618 50.9703C155.682 51.1143 155.715 51.2697 155.715 51.427L156.316 66.7647C156.309 67.0505 156.196 67.3236 155.998 67.5305C155.801 67.7374 155.533 67.8633 155.248 67.8835Z" fill="#134153"/>
<path d="M148.004 43.2567L148.702 50.5826C148.714 50.7022 148.749 50.8183 148.807 50.9237C148.865 51.0292 148.943 51.1218 149.038 51.1959C149.133 51.2701 149.241 51.3243 149.358 51.3552C149.474 51.386 149.595 51.393 149.714 51.3756L151.857 51.0541C152.07 51.0208 152.263 50.9109 152.4 50.7451C152.538 50.5793 152.61 50.3691 152.603 50.1539L152.174 42.6222C152.166 42.4959 152.131 42.3728 152.071 42.2613C152.011 42.1498 151.928 42.0524 151.827 41.9757C151.726 41.8989 151.61 41.8446 151.487 41.8164C151.363 41.7882 151.235 41.7867 151.111 41.812L148.724 42.3093C148.507 42.349 148.313 42.4682 148.18 42.6435C148.047 42.8187 147.984 43.0374 148.004 43.2567Z" fill="#134153"/>
<path d="M104.798 107.703L104.477 119.251" stroke="#134153" stroke-width="1.71467" stroke-linecap="round" stroke-linejoin="round"/>
<path d="M103.817 115.483C103.817 115.483 100.658 116.289 99.8006 116.743C98.9433 117.198 96.7656 117.245 96.7656 117.245L96.9971 112.611L102.24 112.992L103.371 113.074L103.817 115.483Z" fill="#ECFEF2" stroke="#134153" stroke-width="0.428667" stroke-linecap="round" stroke-linejoin="round"/>
<path d="M102.721 113.545L103.038 116.254C103.466 116.423 103.906 116.559 104.354 116.662C104.663 116.683 105.64 115.929 105.64 115.929L105.923 112.019L102.699 112.302L102.721 113.545Z" fill="#ECFEF2" stroke="#134153" stroke-width="0.428667" stroke-linecap="round" stroke-linejoin="round"/>
<path d="M101.715 113.16L102.204 114.956L102.924 115.007L102.705 112.302L101.715 113.16Z" fill="#ECFEF2" stroke="#134153" stroke-width="0.428667" stroke-linecap="round" stroke-linejoin="round"/>
<path d="M82.4772 178.938C82.4772 178.938 80.5268 183.041 80.8783 183.898C81.2298 184.755 83.506 184.708 83.506 184.708L83.6004 179.136C83.6004 179.136 83.086 177.64 82.4772 178.938Z" fill="#ECFEF2" stroke="#134153" stroke-width="0.428667" stroke-linecap="round" stroke-linejoin="round"/>
<path d="M87.8384 181.909C87.8384 181.909 90.3118 183.435 91.0105 183.795C91.7092 184.155 94.6584 184.781 94.7185 185.407C94.7785 186.033 91.8507 186.44 90.3889 186.642C88.9272 186.843 82.4972 185.758 82.2057 185.531C81.9142 185.304 83.0073 181.562 83.0073 181.562L87.8384 181.909Z" fill="#ECFEF2" stroke="#134153" stroke-width="0.428667" stroke-linecap="round" stroke-linejoin="round"/>
<path d="M97.5134 128.356C97.5134 128.356 96.2274 150.381 96.326 153.278C96.4246 156.176 95.3487 158.169 95.2886 158.993C95.2286 159.816 88.3057 176.881 88.3057 176.881L86.9854 180.816L84.2891 176.692L87.1354 157.368L84.3491 128.849L91.5464 127.927L97.5134 128.356Z" fill="#73877B" stroke="#134153" stroke-width="0.428667" stroke-linecap="round" stroke-linejoin="round"/>
<path d="M74.9375 128.994C74.9375 128.994 76.5236 138.511 78.1911 142.562C79.8586 146.613 81.9633 157.509 81.9633 157.509C81.9633 157.509 80.6388 162.992 81.509 165.225C82.3792 167.459 82.4263 179.658 82.4263 179.658C82.3216 180.368 82.2686 181.084 82.2677 181.802C82.3406 182.23 82.392 182.951 82.392 182.951C82.392 182.951 84.4839 182.582 85.2126 182.522C85.9414 182.462 88.4534 182.033 88.4534 182.033C88.4534 182.033 88.5648 180.49 88.732 179.573C88.8992 178.655 88.3033 177.164 88.3033 176.855C88.3033 176.546 89.3236 168.453 89.3236 168.453C89.3236 168.453 90.841 157.509 90.9911 155.452C91.1411 153.394 88.8006 131.524 88.8006 131.524C88.8006 131.524 82.2891 127.237 79.8329 126.945C77.3766 126.654 74.9375 128.994 74.9375 128.994Z" fill="#73877B" stroke="#134153" stroke-width="0.428667" stroke-linecap="round" stroke-linejoin="round"/>
<path d="M82.3356 89.8357C82.3356 89.8357 73.265 94.924 73.2307 95.4083C73.1965 95.8927 76.3472 115.826 76.3472 115.826C76.3472 115.826 73.908 126.812 73.818 128.034C73.773 128.912 73.7917 129.791 73.8737 130.666L79.0563 128.253C79.0563 128.253 88.2041 132.278 89.4172 132.539L91.8435 133.045L93.0694 130.833L93.1937 133.637C94.2482 132.849 95.2205 131.958 96.0958 130.975L98.0891 128.403L97.1932 115.864C97.1932 115.864 97.7376 95.8756 97.8019 94.9797C97.8662 94.0838 97.952 92.9392 97.0946 92.3005C96.2373 91.6618 89.9402 90.2215 89.9402 90.2215L83.7074 89.0298L82.3356 89.8357Z" fill="#ECFEF2" stroke="#134153" stroke-width="0.428667" stroke-linecap="round" stroke-linejoin="round"/>
<path d="M88.8067 91.5289L93.9079 93.1193C94.0641 93.1673 94.2288 93.1823 94.3911 93.1631C94.5535 93.1439 94.7101 93.091 94.8509 93.0078L96.4198 92.0819C96.4373 91.849 96.3763 91.6169 96.2466 91.4227C96.1168 91.2285 95.9258 91.0833 95.704 91.0102C94.418 90.5815 91.846 89.7628 91.2373 89.7714C90.4185 89.7885 88.6867 90.11 88.8067 91.5289Z" fill="#86988D" stroke="#134153" stroke-width="0.428667" stroke-linecap="round" stroke-linejoin="round"/>
<path d="M83.4141 82.8527L84.1685 88.3268L89.3339 92.8878L90.4699 88.5368L85.0473 81.8239L83.4141 82.8527Z" fill="#ECFEF2" stroke="#134153" stroke-width="0.428667" stroke-linecap="round" stroke-linejoin="round"/>
<path d="M87.25 87.5124L89.5905 90.7531L90.2207 89.0427L87.25 87.5124Z" fill="#134153"/>
<path d="M94.8469 76.8729L94.6668 80.4694L94.1953 81.3267L94.281 84.696L93.668 85.2276C93.668 85.2276 92.7164 88.1125 92.5363 88.344C92.0992 88.786 91.603 89.1654 91.0617 89.4714C90.7231 89.6086 87.4095 87.7267 86.8908 86.9508C86.3721 86.1749 85.7848 85.2361 85.7848 85.2361L85.8877 82.6984L85.6562 77.9831L94.8469 76.8729Z" fill="#ECFEF2" stroke="#134153" stroke-width="0.428667" stroke-linecap="round" stroke-linejoin="round"/>
<path d="M92.0369 81.5882V82.5313C91.8166 82.638 91.5713 82.6829 91.3274 82.661C91.0835 82.6391 90.8502 82.5513 90.6523 82.407" stroke="#134153" stroke-width="0.428667" stroke-linecap="round" stroke-linejoin="round"/>
<path d="M92.4761 86.4964C92.4761 86.4964 92.1632 86.5607 91.4688 86.1192" stroke="#134153" stroke-width="0.428667" stroke-linecap="round" stroke-linejoin="round"/>
<path d="M89.9462 78.8747L94.6272 79.1448L94.8459 76.8729L89.4961 78.3346L89.9462 78.8747Z" fill="#134153"/>
<path d="M92.8137 81.1553L90.2031 80.8852" stroke="#134153" stroke-width="0.428667" stroke-linecap="round" stroke-linejoin="round"/>
<path d="M93.6697 85.2404L91.9336 85.3604" stroke="#134153" stroke-width="0.428667" stroke-linecap="round" stroke-linejoin="round"/>
<path d="M94.8433 76.8728C94.8433 76.8728 95.1048 72.1318 93.9517 71.0601C92.7986 69.9885 87.4103 69.6027 86.8144 69.8856C86.3955 70.0977 85.9941 70.3428 85.6141 70.6186C84.4461 71.286 83.3222 72.0277 82.2491 72.8391C81.2889 73.6707 80.7445 74.3694 80.6373 75.8397C80.5302 77.3101 80.9888 80.0535 80.9888 80.0535L94.8433 76.8728Z" fill="#3EF47E" stroke="#134153" stroke-width="0.428667" stroke-linecap="round" stroke-linejoin="round"/>
<path d="M85.6562 78.0175C85.6562 78.0175 94.5725 76.1228 96.3 76.0842C98.0276 76.0456 99.8451 75.8484 99.8451 75.8484C99.8451 75.8484 95.3998 77.1645 93.1322 77.9061C91.0503 78.4861 88.9343 78.9356 86.7965 79.2521L85.6562 78.0175Z" fill="#3EF47E" stroke="#134153" stroke-width="0.428667" stroke-linecap="round" stroke-linejoin="round"/>
<path d="M84.9164 77.4645C84.9164 77.4645 84.8822 75.0811 84.9979 73.5294C85.0805 72.5367 85.2894 71.5586 85.6195 70.6187C85.6195 70.6187 83.2918 71.0259 82.876 72.2262C82.4602 73.4265 83.4933 78.4462 83.4933 78.4462L85.0622 78.3133L84.9379 77.7303L84.9164 77.4645Z" fill="#134153" stroke="#134153" stroke-width="0.428667" stroke-linecap="round" stroke-linejoin="round"/>
<path d="M87.9818 81.0182C87.9343 81.6718 87.694 82.2967 87.2914 82.8138C86.8887 83.3309 86.3418 83.717 85.7198 83.9232C85.0977 84.1295 84.4285 84.1466 83.7967 83.9726C83.1649 83.7985 82.5989 83.4409 82.1702 82.9452C81.7416 82.4494 81.4696 81.8377 81.3887 81.1874C81.3077 80.537 81.4214 79.8773 81.7154 79.2916C82.0094 78.7059 82.4704 78.2205 83.0403 77.8968C83.6101 77.5731 84.2632 77.4257 84.9168 77.4731C85.7929 77.5379 86.6076 77.9474 87.1822 78.612C87.7568 79.2766 88.0443 80.1419 87.9818 81.0182Z" fill="#134153" stroke="#134153" stroke-width="0.428667" stroke-linecap="round" stroke-linejoin="round"/>
<path d="M82.4827 86.728L87.8839 89.1714L89.5428 93.4752L81.4453 89.6858L82.4827 86.728Z" fill="#ECFEF2" stroke="#134153" stroke-width="0.428667" stroke-linecap="round" stroke-linejoin="round"/>
<path d="M96.7668 110.116L96.4453 121.668" stroke="#134153" stroke-width="1.71467" stroke-linecap="round" stroke-linejoin="round"/>
<path d="M76.0496 93.8782C76.0496 93.8782 71.3343 95.3442 71.2742 96.3259C71.2142 97.3075 74.515 118.394 75.1923 119.264C75.8696 120.134 79.9505 120.43 79.9505 120.43L82.2095 114.188L80.9492 113.443L80.2334 97.3075" fill="#ECFEF2"/>
<path d="M76.0496 93.8782C76.0496 93.8782 71.3343 95.3442 71.2742 96.3259C71.2142 97.3075 74.515 118.394 75.1923 119.264C75.8696 120.134 79.9505 120.43 79.9505 120.43L82.2095 114.188L80.9492 113.443L80.2334 97.3075" stroke="#134153" stroke-width="0.428667" stroke-linecap="round" stroke-linejoin="round"/>
<path d="M83.4241 114.454L92.8548 115.47L94.7281 113.387L98.8776 113.854C99.0234 113.978 99.1381 114.135 99.2126 114.311C99.287 114.488 99.3191 114.679 99.3062 114.87C99.2522 115.295 99.0486 115.687 98.7318 115.976C98.7318 115.976 98.1488 118.398 97.7931 118.779C97.4373 119.161 92.5076 119.208 92.5076 119.208L80.9336 120.421C80.9336 120.421 81.7095 117.605 82.1853 116.739C82.6611 115.873 83.4241 114.454 83.4241 114.454Z" fill="#ECFEF2" stroke="#134153" stroke-width="0.428667" stroke-linecap="round" stroke-linejoin="round"/>
<path d="M80.9146 112.877C80.9146 112.877 79.1142 115.046 78.9513 116.182C78.7884 117.318 78.4927 121.326 78.9042 121.351C79.3157 121.377 80.7646 121.728 81.1033 121.591C81.4419 121.454 81.9992 118.291 81.9992 118.291C81.9992 118.291 84.3225 114.518 84.0953 114.257C83.8681 113.995 80.9146 112.877 80.9146 112.877Z" fill="#ECFEF2" stroke="#134153" stroke-width="0.428667" stroke-linecap="round" stroke-linejoin="round"/>
<path d="M73.9036 93.3679L81.0152 95.5927C81.2324 95.6606 81.4615 95.6819 81.6875 95.6553C81.9135 95.6287 82.1314 95.5548 82.3269 95.4384L84.5131 94.1524C84.5363 93.8281 84.4506 93.5053 84.2697 93.2351C84.0888 92.965 83.823 92.7628 83.5143 92.6607C81.6968 92.0605 78.1431 90.946 77.3029 90.946C76.1455 90.9503 73.7279 91.3918 73.9036 93.3679Z" fill="#86988D" stroke="#134153" stroke-width="0.428667" stroke-linecap="round" stroke-linejoin="round"/>
<path d="M82.1875 94.5896L91.1766 97.4145L101.229 94.2124L95.862 92.6863" stroke="#134153" stroke-width="0.857333" stroke-linecap="round" stroke-linejoin="round"/>
<path d="M99.7337 110.536L96.5187 109.271L94.0796 110.129L91.0703 108.877L91.439 100.947L96.1929 99.5322L103.189 101.384L102.983 109.944L99.7337 110.536Z" fill="#86988D" stroke="#134153" stroke-width="0.428667" stroke-linecap="round" stroke-linejoin="round"/>
<path d="M91.4414 100.947L94.3692 101.881L96.6797 101.427L100.199 102.717L103.594 101.517L96.1953 99.5322L91.4414 100.947Z" stroke="#134153" stroke-width="0.428667" stroke-linecap="round" stroke-linejoin="round"/>
<path d="M94.082 110.129L94.3692 101.881L96.6798 101.427L96.5211 109.272L94.082 110.129Z" fill="#134153" stroke="#134153" stroke-width="0.428667" stroke-linecap="round" stroke-linejoin="round"/>
<path d="M101.18 101.35L106.2 99.7422L105.609 109.31L101.172 111.342L101.18 101.35Z" fill="#86988D" stroke="#134153" stroke-width="0.428667" stroke-linecap="round" stroke-linejoin="round"/>
<path d="M101.355 99.5965L107.498 97.5646L106.204 99.7423L101.54 101.367L101.355 99.5965Z" fill="#134153" stroke="#134153" stroke-width="0.428667" stroke-linecap="round" stroke-linejoin="round"/>
<path d="M107.499 97.5646L107.225 111.286L105.613 109.31L106.205 99.7423L107.499 97.5646Z" fill="#134153" stroke="#134153" stroke-width="0.428667" stroke-linecap="round" stroke-linejoin="round"/>
<path d="M99.7266 112.088L105.612 109.31L107.224 111.286L101.017 114.248L99.7266 112.088Z" fill="#134153" stroke="#134153" stroke-width="0.428667" stroke-linecap="round" stroke-linejoin="round"/>
<path d="M99.3194 102.036L99.1094 112.041L101.017 114.248L101.356 99.5965L99.3194 102.036Z" fill="#134153" stroke="#134153" stroke-width="0.428667" stroke-linecap="round" stroke-linejoin="round"/>
<path d="M104.934 105.851C105.103 103.522 104.503 101.582 103.594 101.516C102.685 101.45 101.811 103.284 101.642 105.612C101.473 107.94 102.073 109.881 102.982 109.947C103.891 110.013 104.765 108.179 104.934 105.851Z" fill="#134153" stroke="#134153" stroke-width="0.428667" stroke-linecap="round" stroke-linejoin="round"/>
<path d="M97.207 95.4727L97.2542 100.54" stroke="#134153" stroke-width="0.857333" stroke-linecap="round" stroke-linejoin="round"/>
<path d="M99.4141 95.014L99.4612 88.7126" stroke="#134153" stroke-width="0.857333" stroke-linecap="round" stroke-linejoin="round"/>
<path d="M100.49 82.9985L100.34 92.1891L106.766 90.483L107.211 81.5239L100.49 82.9985Z" fill="#86988D" stroke="#134153" stroke-width="0.428667" stroke-linecap="round" stroke-linejoin="round"/>
<path d="M100.492 82.9986L99.5146 83.6545L97.114 83.9931L97.1055 88.3355L99.4117 89.33L100.342 92.1892L100.492 82.9986Z" fill="#134153" stroke="#134153" stroke-width="0.428667" stroke-linecap="round" stroke-linejoin="round"/>
<path d="M59.861 73.4349C59.861 73.4349 57.1304 75.2353 56.7789 76.4356C56.4274 77.6358 55.6301 79.9249 56.2173 81.0823C56.8046 82.2397 57.7477 85.2018 58.0906 85.6905C58.4335 86.1792 59.6081 88.4982 59.6081 88.4982L59.6424 91.0274L68.2972 91.9233C68.2972 91.9233 69.386 90.9588 69.626 90.0372C69.8661 89.1155 70.4834 86.9979 70.4834 86.9979C70.4834 86.9979 71.7393 86.3249 71.7694 85.8577C71.7994 85.3904 70.9763 83.47 70.9763 83.47L71.9322 81.5624L72.0008 80.4436C72.0008 80.4436 74.1442 80.4779 73.7155 78.4846C73.2868 76.4913 70.5005 74.3608 67.2855 73.0448C64.0705 71.7288 61.0098 73.0362 59.861 73.4349Z" fill="#ECFEF2" stroke="#134153" stroke-width="0.428667" stroke-linecap="round" stroke-linejoin="round"/>
<path d="M67.5939 90.8046L67.0195 89.0899L69.09 90.9289C69.09 90.9289 68.6313 91.5033 67.5939 90.8131" fill="#134153"/>
<path d="M67.5939 90.8046L67.0195 89.0899L69.09 90.9289C69.09 90.9289 68.6313 91.5033 67.5939 90.8131" stroke="#134153" stroke-width="0.428667" stroke-linecap="round" stroke-linejoin="round"/>
<path d="M67.3007 73.0406C64.1029 71.7246 61.0294 73.0406 59.8805 73.4349C59.8805 73.4349 57.1499 75.2353 56.7984 76.4356C56.4469 77.6359 55.6496 79.925 56.2369 81.0824C56.8241 82.2398 57.7672 85.2018 58.1101 85.6905C58.4531 86.1792 59.6276 88.4983 59.6276 88.4983V88.524C60.6264 88.2497 62.9283 87.6452 63.7985 87.6238C64.9259 87.5981 66.945 86.6893 66.945 86.6893C66.945 86.6893 66.1176 86.4535 65.7233 85.2147C65.3289 83.9759 65.8261 81.944 66.2162 81.6868C66.6063 81.4296 67.4465 83.0714 67.4465 83.0714L68.6468 81.7382C68.6468 81.7382 69.7013 81.3353 70.0099 80.8809C70.3186 80.4265 69.1269 78.4846 69.1269 78.4846L72.0032 80.4394C72.0032 80.4394 74.1466 80.4736 73.7179 78.4803C73.2892 76.487 70.4815 74.3566 67.3007 73.0406Z" fill="#134153" stroke="#134153" stroke-width="0.428667" stroke-linecap="round" stroke-linejoin="round"/>
<path d="M57.6133 93.711C57.6133 93.711 60.9397 92.8794 63.0188 92.5365C65.0978 92.1935 69.5988 92.1078 69.5988 92.1078C68.4127 91.2901 67.1334 90.6167 65.788 90.1017C64.0433 89.5272 60.181 89.9473 59.2036 90.6375C58.2263 91.3276 57.6133 93.711 57.6133 93.711Z" fill="#3EF47E" stroke="#134153" stroke-width="0.428667" stroke-linecap="round" stroke-linejoin="round"/>
<path d="M52.5501 118.681C52.5501 118.681 52.923 120.202 53.9261 120.64C54.9292 121.077 57.1111 120.64 57.7841 118.998C58.4571 117.356 56.9268 116.323 56.9268 116.323L52.25 117.455L52.5501 118.681Z" fill="#ECFEF2" stroke="#134153" stroke-width="0.428667" stroke-linecap="round" stroke-linejoin="round"/>
<path d="M51.0456 114.098C51.0456 114.098 50.2611 114.707 50.2311 115.174C50.2011 115.642 51.2213 118.977 51.6843 119.007C52.1473 119.037 54.2563 119.534 55.5423 118.955C56.3893 118.485 57.0817 117.779 57.5356 116.923L57.0126 112.958L51.0456 114.098Z" fill="#3EF47E" stroke="#134153" stroke-width="0.428667" stroke-linecap="round" stroke-linejoin="round"/>
<path d="M53.726 183.075L53.3359 186.419C53.7705 186.721 54.2723 186.912 54.7977 186.976C55.5479 187.023 58.1927 186.62 58.4714 186.637L60.8976 186.783C61.4549 186.817 61.6564 186.642 61.5835 186.26C61.5106 185.879 59.1058 183.864 59.1058 183.864L58.63 182.432L54.0561 182.252L53.726 183.075Z" fill="#ECFEF2" stroke="#134153" stroke-width="0.428667" stroke-linecap="round" stroke-linejoin="round"/>
<path d="M81.3236 183.427C81.3236 183.427 80.7363 186.95 81.1735 187.443C81.6108 187.936 82.7425 187.816 83.394 187.872C84.0456 187.928 87.4407 187.55 88.1094 187.593C88.7781 187.636 92.2246 187.653 93.1076 187.049C93.9907 186.444 93.2662 185.934 92.2503 185.596C91.2344 185.257 87.8436 184.112 87.2092 183.791C86.6464 183.481 86.1037 183.136 85.5845 182.758L81.3236 183.427Z" fill="#ECFEF2" stroke="#134153" stroke-width="0.428667" stroke-linecap="round" stroke-linejoin="round"/>
<path d="M57.3491 122.903C57.3491 122.903 56.6975 130.542 57.1905 131.695C57.6834 132.848 57.7135 140.153 57.6492 141.177C57.5849 142.202 57.9364 158.144 57.9364 158.144C57.9364 158.144 55.4287 170.258 55.1157 172.388C54.8028 174.519 54.3398 180.584 54.3398 180.584C54.3398 180.584 56.9118 181.112 57.3962 181.142C57.9401 181.103 58.4787 181.01 59.0037 180.863C59.0037 180.863 64.2978 164.797 64.7264 163.322C65.1551 161.847 65.6481 157.385 65.6781 156.922C65.7081 156.459 69.086 139.149 69.086 139.149L71.1179 142.737L77.3935 161.372L80.8229 181.802L85.0024 181.326C85.0024 181.326 85.431 166.751 85.5596 164.317C85.5979 162.458 85.4544 160.6 85.131 158.77C85.131 158.77 84.0164 143.068 82.9448 140.663C81.8731 138.258 79.1339 129.29 79.1339 129.29L77.6979 123.589C74.475 124.149 71.1975 124.327 67.9329 124.12C62.4459 123.773 57.3491 122.903 57.3491 122.903Z" fill="#B2BDB6" stroke="#134153" stroke-width="0.428667" stroke-linecap="round" stroke-linejoin="round"/>
<path d="M69.1023 139.154L64.4727 135.96L67.5291 139.754L66.8518 150.355L69.1023 139.154Z" fill="#134153" stroke="#134153" stroke-width="0.428667" stroke-linecap="round" stroke-linejoin="round"/>
<path d="M85.5158 179.093C85.5158 179.093 82.858 179.68 82.0093 179.817L79.8359 180.152L80.7276 183.954C80.7276 183.954 84.667 183.817 86.4117 182.891L85.5158 179.093Z" fill="#A7B4AC" stroke="#134153" stroke-width="0.428667" stroke-linecap="round" stroke-linejoin="round"/>
<path d="M53.9474 179.341C53.9474 179.341 57.2653 180.199 57.9211 180.237L60.1588 180.37L59.7301 183.058C58.6519 183.348 57.5416 183.502 56.4251 183.517C55.1391 183.439 53.3516 183.238 53.3516 183.238L53.9474 179.341Z" fill="#A7B4AC" stroke="#134153" stroke-width="0.428667" stroke-linecap="round" stroke-linejoin="round"/>
<path d="M86.2626 99.8365L90.1763 97.0759L82.5889 93.9981C82.5889 93.9981 77.8436 96.613 76.519 98.4048C75.1944 100.197 74.9844 100.548 74.9844 100.548L80.4542 106.121C80.4542 106.121 84.6251 100.582 86.2626 99.8365Z" fill="#ECFEF2" stroke="#134153" stroke-width="0.428667" stroke-linecap="round" stroke-linejoin="round"/>
<path d="M80.4611 109.13L82.5101 104.668C82.5101 104.668 82.3772 102.224 82.7716 101.873C83.1621 101.431 83.5055 100.95 83.7961 100.437C83.7961 100.437 83.9719 99.0435 84.3534 98.9706C84.7349 98.8977 84.9021 99.1935 84.8592 99.8279C84.761 100.405 84.5699 100.962 84.2934 101.478L86.2652 99.8194C86.3448 100.629 86.3591 101.443 86.3081 102.254C86.1838 102.717 84.8763 104.23 84.8763 104.23C84.8763 104.23 83.2731 113.777 83.1317 114.518C82.9902 115.26 80.4354 117.352 79.3808 117.755C78.3263 118.158 76.8388 117.978 77.1518 114.325L80.4611 109.13Z" fill="#ECFEF2" stroke="#134153" stroke-width="0.428667" stroke-linecap="round" stroke-linejoin="round"/>
<path d="M58.1008 93.3636C58.1008 93.3636 49.7804 97.826 49.7247 98.8505C49.669 99.875 50.7835 103.034 50.7835 103.034C50.7835 103.034 51.1136 111.573 51.1264 112.894C51.1393 114.214 50.8006 115.213 52.0395 116.413C53.2783 117.613 54.7358 116.67 55.5117 116.246C55.9587 116.019 56.3121 115.643 56.5105 115.183C56.5105 115.183 57.4235 118.702 57.2649 119.817C57.1063 120.931 56.4076 123.323 56.5491 123.893C56.6905 124.463 58.2337 125.492 63.8364 125.642C69.4391 125.792 74.8874 125.561 76.6964 125.106C78.5054 124.652 78.9126 124.026 78.9512 123.37C78.9897 122.714 77.9267 117.026 77.9267 117.026L77.5323 115.783C77.5323 115.783 80.773 114.857 81.2617 114.497C81.7504 114.137 82.1662 111.925 81.9218 111.26C81.6775 110.596 81.3474 109.914 81.3474 109.914C81.3474 109.914 79.5599 99.2277 79.4999 98.6619C79.4399 98.0961 80.1343 95.8927 79.6413 94.7396C79.1484 93.5865 69.4991 92.1676 68.6803 91.7389C67.8616 91.3103 60.5914 92.3905 58.1008 93.3636Z" fill="#3EF47E" stroke="#134153" stroke-width="0.428667" stroke-linecap="round" stroke-linejoin="round"/>
<path d="M56.5033 115.174L53.4727 104.882" stroke="#134153" stroke-width="0.428667" stroke-linecap="round" stroke-linejoin="round"/>
<path d="M59.2344 122.642L68.8579 116.765" stroke="#134153" stroke-width="0.428667" stroke-linecap="round" stroke-linejoin="round"/>
<path d="M66.122 116.957L61.4023 120.901" stroke="#134153" stroke-width="0.428667" stroke-linecap="round" stroke-linejoin="round"/>
<path d="M68.4036 115.05L67.1133 116.126" stroke="#134153" stroke-width="0.428667" stroke-linecap="round" stroke-linejoin="round"/>
<path d="M77.5338 115.787L76.3164 100.265" stroke="#134153" stroke-width="0.428667" stroke-linecap="round" stroke-linejoin="round"/>
<path d="M77.2461 112.457C77.2461 112.457 80.2125 111.736 80.4911 111.753C80.7697 111.771 81.2756 109.649 81.2756 109.649C81.2756 109.649 81.2756 109.366 81.8328 109.679C82.3901 109.992 82.7716 111.235 82.4115 112.525C82.0514 113.815 82.0129 114.467 80.8555 115.05C79.7887 115.537 78.6936 115.959 77.5762 116.314L77.2461 112.457Z" fill="#3EF47E" stroke="#134153" stroke-width="0.428667" stroke-linecap="round" stroke-linejoin="round"/>
<path d="M140.908 87.4609L140.754 90.8131L138.906 90.7273L136.308 90.6116L134.062 90.5087L131.469 90.393L129.223 90.2901L126.625 90.1743L125.438 90.1186L125.592 86.7621L128.271 86.8865L130.976 87.0065L133.111 87.1051L135.816 87.2294L137.95 87.328L140.655 87.448L140.908 87.4609Z" fill="#134153" stroke="#134153" stroke-width="0.428667" stroke-linecap="round" stroke-linejoin="round"/>
<path d="M129.223 90.2901L130.976 87.0065L128.271 86.8865L126.625 90.1743" fill="#ECFEF2"/>
<path d="M129.223 90.2901L130.976 87.0065L128.271 86.8865L126.625 90.1743" stroke="#134153" stroke-width="0.428667" stroke-linecap="round" stroke-linejoin="round"/>
<path d="M134.062 90.5087L135.815 87.2294L133.111 87.1051L131.469 90.393" fill="#ECFEF2"/>
<path d="M134.062 90.5087L135.815 87.2294L133.111 87.1051L131.469 90.393" stroke="#134153" stroke-width="0.428667" stroke-linecap="round" stroke-linejoin="round"/>
<path d="M138.902 90.7273L140.651 87.448L137.946 87.328L136.305 90.6116" fill="#ECFEF2"/>
<path d="M138.902 90.7273L140.651 87.448L137.946 87.328L136.305 90.6116" stroke="#134153" stroke-width="0.428667" stroke-linecap="round" stroke-linejoin="round"/>
<path d="M140.85 90.9855L125.535 91.7452L125.962 100.347L141.276 99.5869L140.85 90.9855Z" fill="#134153" stroke="#134153" stroke-width="0.428667" stroke-linecap="round" stroke-linejoin="round"/>
<path d="M140.989 93.8308L138.871 93.938L136.758 94.0452L134.67 94.1481L132.574 94.2552L130.478 94.3624L128.394 94.4653L125.677 94.6024L125.535 91.7432L127.031 91.6704L129.312 91.5546L131.219 91.4603L133.513 91.3489L135.399 91.2546L137.705 91.1388L140.847 90.9845L140.989 93.8308Z" fill="#134153" stroke="#134153" stroke-width="0.428667" stroke-linecap="round" stroke-linejoin="round"/>
<path d="M130.478 94.3623L129.312 91.5546L127.031 91.6703L128.394 94.4652" fill="#ECFEF2"/>
<path d="M130.478 94.3623L129.312 91.5546L127.031 91.6703L128.394 94.4652" stroke="#134153" stroke-width="0.428667" stroke-linecap="round" stroke-linejoin="round"/>
<path d="M134.673 94.1481L132.577 94.2552L131.223 91.4603L133.516 91.3489L134.673 94.1481Z" fill="#ECFEF2" stroke="#134153" stroke-width="0.428667" stroke-linecap="round" stroke-linejoin="round"/>
<path d="M138.871 93.938L136.757 94.0452L135.398 91.2545L137.705 91.1388L138.871 93.938Z" fill="#ECFEF2" stroke="#134153" stroke-width="0.428667" stroke-linecap="round" stroke-linejoin="round"/>
<path d="M142.509 86.4105C142.509 86.4105 139.971 85.3474 139.62 85.5018C139.268 85.6561 134.836 87.0192 134.836 87.0192L137.562 87.135C136.904 87.486 136.227 87.8008 135.535 88.078C135.187 88.1466 136.092 89.1369 136.701 88.9911C137.37 88.762 138.018 88.4751 138.638 88.1338L140.529 88.2195C141.043 88.2046 141.549 88.0804 142.012 87.8551L153.179 100.175L155.176 101.817L159.737 98.2289L148.991 89.8956L142.509 86.4105Z" fill="#ECFEF2" stroke="#134153" stroke-width="0.428667" stroke-linecap="round" stroke-linejoin="round"/>
<path d="M144.207 113.498C144.207 113.498 138.12 102.07 137.387 101.165C136.654 100.261 135.925 99.5149 135.316 99.4506C134.707 99.3863 132.868 98.7948 132.097 98.8333C131.325 98.8719 130.909 99.2363 131.355 99.5621C131.85 99.8182 132.383 99.9947 132.933 100.085L128.805 100.291C128.805 100.291 129.838 101.963 130.464 102.434C131.089 102.906 135.295 102.434 135.295 102.434C135.295 102.434 139.114 115.097 139.457 116.803C139.8 118.509 141.523 120.151 141.78 120.138C142.038 120.125 145.638 117.793 145.638 117.793L144.207 113.498Z" fill="#ECFEF2" stroke="#134153" stroke-width="0.428667" stroke-linecap="round" stroke-linejoin="round"/>
<path d="M161.498 183.396C161.498 183.396 161.807 186.037 161.76 186.277C161.713 186.517 160.671 186.98 160.38 186.993C160.088 187.006 156.642 186.59 156.462 186.599C156.282 186.607 156.102 182.895 156.102 182.895L159.047 182.749C159.282 182.741 161.498 183.396 161.498 183.396Z" fill="#ECFEF2" stroke="#134153" stroke-width="0.428667" stroke-linecap="round" stroke-linejoin="round"/>
<path d="M152.743 183.006C152.743 183.006 151.457 183.658 150.27 184.292C149.082 184.927 146.982 185.87 146.703 186.178C146.425 186.487 147.046 187.164 147.286 187.272C149.336 187.686 151.424 187.88 153.515 187.85C155.868 187.73 157.694 187.64 157.84 186.993C157.919 186.366 157.926 185.731 157.861 185.103C157.861 185.103 154.111 184.472 152.743 183.006Z" fill="#ECFEF2" stroke="#134153" stroke-width="0.428667" stroke-linecap="round" stroke-linejoin="round"/>
<path d="M149.372 126.92C149.372 126.92 149.342 126.98 149.294 127.087C148.866 128.038 146.804 132.882 146.315 137.932C145.98 141.253 146.107 144.604 146.692 147.89L149.775 162.435C149.775 162.435 149.539 167.15 150.298 169.375C151.056 171.599 153.101 181.926 153.101 181.926C153.101 181.926 152.518 182.012 152.531 182.308C152.51 182.594 152.445 182.876 152.338 183.143C152.338 183.143 152.561 182.895 153.56 183.967C154.558 185.038 156.612 185.998 157.023 185.981L157.906 185.934V183.281C157.906 183.281 159.484 184.138 160.427 184.099C160.959 184.083 161.479 183.936 161.94 183.671C161.94 183.671 161.854 180.782 161.893 180.366C161.932 179.95 162.665 169.765 162.12 167.077C161.576 164.389 160.538 159.01 160.538 159.01C160.538 159.01 165.532 144.298 166.06 141.863C166.587 139.428 166.835 133.675 166.437 131.575C166.108 130.039 165.678 128.527 165.151 127.048L164.058 125.556C164.058 125.556 159.492 127.554 155.733 126.735C151.974 125.916 150.422 125.522 150.422 125.522L149.372 126.92Z" fill="#73877B" stroke="#134153" stroke-width="0.428667" stroke-linecap="round" stroke-linejoin="round"/>
<path d="M164.295 138.695L158.075 141.837C158.075 141.837 156.579 155.662 156.467 155.846C156.356 156.03 156.703 160.561 156.737 161.26C156.741 161.818 156.689 162.375 156.583 162.923C157.106 164.594 157.43 166.321 157.548 168.067C157.753 171.008 157.728 177.622 157.728 177.622L158.105 182.856" stroke="#134153" stroke-width="0.428667" stroke-linecap="round" stroke-linejoin="round"/>
<path d="M155.689 101.543C155.689 101.543 150.301 104.14 150.241 104.659C150.181 105.178 144.84 112.259 144.84 112.259C144.84 112.259 144.977 115.011 145.47 116.28L146.259 118.312L150.275 115.783L150.931 122.046L149.289 127.215C149.289 127.215 151.398 129.702 154.331 129.727C157.263 129.753 161.451 128.943 162.63 128.369C163.808 127.794 165.15 127.035 165.15 127.035L163.65 121.158C163.65 121.158 168.391 110.66 168.571 107.372C168.751 104.085 167.744 99.395 167.036 98.9963C166.728 98.8094 166.402 98.6529 166.063 98.5291L155.689 101.543Z" fill="#ECFEF2" stroke="#134153" stroke-width="0.428667" stroke-linecap="round" stroke-linejoin="round"/>
<path d="M145.984 110.995C145.984 110.995 145.422 113.61 146.095 114.956C146.768 116.302 147.553 118.248 147.553 118.248L145.281 119.397C145.281 119.397 143.836 118.111 143.746 116.28C143.656 114.45 143.656 112.748 143.656 112.748C143.656 112.748 145.268 110.515 145.984 110.995Z" fill="#ECFEF2" stroke="#134153" stroke-width="0.428667" stroke-linecap="round" stroke-linejoin="round"/>
<path d="M150.273 115.783L154.397 113.768" stroke="#134153" stroke-width="0.428667" stroke-linecap="round" stroke-linejoin="round"/>
<path d="M152.759 84.1816C152.759 84.1816 151.983 85.9434 152.031 86.8907C152.078 87.8381 151.876 88.9698 151.889 89.3127C151.902 89.6556 150.912 90.3972 150.95 91.1731C151.024 91.6993 151.294 92.1784 151.705 92.5149C151.705 92.5149 152.065 96.2914 152.618 97.0373C153.171 97.7832 155.348 96.3857 155.348 96.3857L156.746 100.282L160.501 99.425C160.501 99.425 159.905 92.6435 159.322 89.6514C158.739 86.6593 156.789 83.74 155.576 83.65C154.362 83.56 152.759 84.1816 152.759 84.1816Z" fill="#ECFEF2" stroke="#134153" stroke-width="0.428667" stroke-linecap="round" stroke-linejoin="round"/>
<path d="M152.207 93.1622C152.207 93.1622 152.949 93.0979 153.064 92.6649" stroke="#134153" stroke-width="0.428667" stroke-linecap="round" stroke-linejoin="round"/>
<path d="M152.391 87.9495C152.391 87.9495 152.764 87.3922 153.248 88.4468" stroke="#134153" stroke-width="0.428667" stroke-linecap="round" stroke-linejoin="round"/>
<path d="M152.736 90.3073C152.89 90.3073 153.014 89.9599 153.014 89.5314C153.014 89.1029 152.89 88.7555 152.736 88.7555C152.582 88.7555 152.457 89.1029 152.457 89.5314C152.457 89.9599 152.582 90.3073 152.736 90.3073Z" fill="#134153"/>
<path d="M159.764 98.4948C159.764 98.4948 154.595 100.304 154.265 100.668C153.935 101.032 154.012 102.49 154.012 102.49L161.32 100.308L160.622 98.3576L159.764 98.4948Z" fill="#ECFEF2" stroke="#134153" stroke-width="0.428667" stroke-linecap="round" stroke-linejoin="round"/>
<path d="M153.538 80.6922C153.538 80.6922 151.914 81.0352 152.016 83.097C152.119 85.1589 153.397 86.565 154.13 87.478C154.863 88.3911 157.435 89.7285 157.435 89.7285C157.435 89.7285 157.555 93.8609 157.383 95.6827C157.212 97.5045 155.24 99.1506 155.24 99.1506C156.827 100.084 158.641 100.562 160.483 100.531C162.649 100.366 164.774 99.857 166.78 99.022C167.453 98.7305 168.006 97.6674 168.006 97.6674C168.006 97.6674 167.148 94.2595 167.127 93.9166C167.105 93.5737 166.763 91.7733 166.763 91.7733L166.098 88.7726C166.59 88.1889 166.885 87.4644 166.941 86.7029C166.996 85.9414 166.809 85.1819 166.407 84.5331C164.996 82.1883 162.24 80.5122 158.691 79.912C155.141 79.3119 153.538 80.6922 153.538 80.6922Z" fill="#134153" stroke="#134153" stroke-width="0.428667" stroke-linecap="round" stroke-linejoin="round"/>
<path d="M164.648 87.388C164.972 88.2946 165.164 89.2431 165.219 90.2043C165.279 91.0142 165.233 91.8285 165.081 92.6263C165.081 92.6263 167.079 92.9564 167.898 92.0562C168.716 91.156 167.988 88.6011 166.903 87.6195C165.819 86.6378 164.678 86.2649 164.648 87.388Z" fill="#134153" stroke="#134153" stroke-width="0.428667" stroke-linecap="round" stroke-linejoin="round"/>
<path d="M232.948 180.94C233.692 181.418 234.381 181.978 235.002 182.608C235.688 183.388 239.126 185.57 239.323 186.547C239.52 187.524 238.928 187.722 238.928 187.722C238.928 187.722 238.071 188.116 236.091 187.82C234.11 187.524 230.792 185.737 230.698 185.347C230.604 184.957 229.815 184.661 229.815 184.661L229.716 185.248C229.131 185.059 228.572 184.797 228.053 184.468C227.721 184.147 227.484 183.74 227.367 183.294C227.367 183.294 228.345 181.334 228.345 181.039C228.345 180.743 232.948 180.94 232.948 180.94Z" fill="#134153" stroke="#134153" stroke-width="0.428667" stroke-linecap="round" stroke-linejoin="round"/>
<path d="M203.777 183.551C203.777 183.551 202.701 185.694 202.114 186.684C201.527 187.674 199.971 188.446 198.98 188.742C197.99 189.038 196.73 189.033 196.537 188.155C196.344 187.276 197.124 185.608 198.299 184.434C199.169 183.631 200.16 182.97 201.235 182.475L203.777 183.551Z" fill="#134153" stroke="#134153" stroke-width="0.428667" stroke-linecap="round" stroke-linejoin="round"/>
<path d="M233.927 118.488C233.927 118.488 235.003 129.449 235.003 129.843C235.003 130.237 235.788 142.763 235.689 147.757C235.59 152.751 233.623 162.636 233.623 162.636C233.623 162.636 233.717 173.404 233.717 174.287C233.717 175.17 234.111 181.433 234.111 181.433C234.111 181.433 230.391 181.922 229.705 181.922C229.019 181.922 226.966 180.94 226.966 180.94C226.966 180.94 226.181 171.84 226.181 169.881C226.181 167.922 226.378 157.839 226.378 157.839L224.617 141.121L223.832 135.934L221.384 136.715C221.384 136.715 216.099 152.087 214.924 154.239C213.75 156.39 211.495 168.303 210.209 170.751C208.923 173.198 207.397 177.468 207.397 177.468L206.715 183.829C206.715 183.829 204.756 183.829 204.071 183.928C203.385 184.027 200.547 182.556 200.547 182.556C200.547 182.556 201.833 177.074 202.013 175.509C202.193 173.944 204.362 159.194 204.658 157.822C204.954 156.45 206.128 153.711 206.128 153.223C206.128 152.734 210.925 129.646 210.925 129.646L214.74 119.954C214.74 119.954 219.245 121.03 222.962 121.03C226.678 121.03 233.927 118.488 233.927 118.488Z" fill="#73877B" stroke="#134153" stroke-width="0.428667" stroke-linecap="round" stroke-linejoin="round"/>
<path d="M207.395 177.485L208.179 170.828" stroke="#134153" stroke-width="0.428667" stroke-linecap="round" stroke-linejoin="round"/>
<path d="M214.039 121.741L214.738 119.967C214.738 119.967 219.243 121.043 222.96 121.043C226.676 121.043 233.925 118.501 233.925 118.501C233.925 118.501 234.062 119.89 234.238 121.699C233.23 122.384 231.087 123.439 227.169 123.769C221.206 124.275 215.595 122.26 215.325 122.26C214.886 122.114 214.457 121.94 214.039 121.741Z" fill="#134153"/>
<path d="M232.464 123.336L232.293 120.314L231.371 120.395L231.538 123.507" fill="#73877B"/>
<path d="M232.464 123.336L232.293 120.314L231.371 120.395L231.538 123.507" stroke="#134153" stroke-width="0.428667" stroke-linecap="round" stroke-linejoin="round"/>
<path d="M219.692 124.095L219.944 121.068L219.186 120.815L218.766 124.176" fill="#73877B"/>
<path d="M219.692 124.095L219.944 121.068L219.186 120.815L218.766 124.176" stroke="#134153" stroke-width="0.428667" stroke-linecap="round" stroke-linejoin="round"/>
<path d="M224.586 124.038L227.273 123.983L227.239 122.303L224.552 122.358L224.586 124.038Z" fill="#ECFEF2" stroke="#134153" stroke-width="0.428667" stroke-linecap="round" stroke-linejoin="round"/>
<path d="M223.94 89.4755C223.94 89.4755 225.964 90.65 226.487 91.8931C227.01 93.1363 230.345 101.29 230.859 103.377C231.373 105.465 233.47 112.379 233.598 114.278C233.727 116.177 234.048 119.825 234.048 119.825C232.24 121.18 230.095 122.015 227.846 122.238C223.932 122.697 217.862 121.587 217.862 121.587C217.862 121.587 217.403 108.075 217.21 106.185C217.017 104.294 214.664 92.2189 214.664 92.2189C214.664 92.2189 216.554 90.3928 218.385 90.1313C220.215 89.8698 223.94 89.4755 223.94 89.4755Z" fill="#ECFEF2" stroke="#134153" stroke-width="0.428667" stroke-linecap="round" stroke-linejoin="round"/>
<path d="M217.873 94.4052C217.873 94.4052 221.007 108.401 221.007 110.656C221.007 112.911 215.036 133.564 215.036 133.564C215.036 133.564 208.571 132.681 207.397 132.094C206.222 131.506 202.994 129.059 202.994 129.059C202.994 129.059 210.239 111.436 210.337 111.055C210.436 110.673 208.378 104.007 208.378 104.007C208.378 104.007 204.267 104.496 202.699 104.397C201.467 104.264 200.253 104.001 199.076 103.613C199.076 103.613 199.274 99.3263 198.883 98.3275C198.493 97.3287 197.512 95.5883 197.512 95.5883C197.512 95.5883 202.111 95.8798 202.6 96.077C203.089 96.2742 206.029 95.0996 206.029 95.0996C206.029 95.0996 206.419 92.7505 207.105 92.1633C207.791 91.576 214.761 91.0745 214.761 91.0745C214.761 91.0745 217.578 92.0561 217.873 94.4052Z" fill="#3EF47E" stroke="#134153" stroke-width="0.428667" stroke-linecap="round" stroke-linejoin="round"/>
<path d="M214.742 91.0745L215.042 96.0813L217.263 97.6459L215.827 98.9534L220.396 110.047" fill="#3EF47E"/>
<path d="M214.742 91.0745L215.042 96.0813L217.263 97.6459L215.827 98.9534L220.396 110.047" stroke="#134153" stroke-width="0.428667" stroke-linecap="round" stroke-linejoin="round"/>
<path d="M241.767 128.669L239.417 130.43L239.027 133.86H239.516C239.516 133.86 239.516 135.146 239.808 135.231C240.163 135.301 240.525 135.334 240.888 135.33L241.767 134.837H243.824C244.214 134.837 244.604 131.609 244.604 130.55V128.296L242.157 127.906L241.767 128.669Z" fill="#ECFEF2" stroke="#134153" stroke-width="0.428667" stroke-linecap="round" stroke-linejoin="round"/>
<path d="M244.696 125.145L244.893 128.862L241.76 128.669L241.562 126.221L244.696 125.145Z" fill="#ECFEF2" stroke="#134153" stroke-width="0.428667" stroke-linecap="round" stroke-linejoin="round"/>
<path d="M224.332 89.3126L226.475 91.8846L229.905 103.887L235.387 123.563L235.289 111.033L238.615 113.382L240.48 126.808L245.195 126.512L244.805 111.145L236.961 95.6783C236.961 95.6783 236.472 90.5858 235.885 90.4872C235.297 90.3886 227.17 90.2943 227.17 90.2943L224.332 89.3126Z" fill="#3EF47E" stroke="#134153" stroke-width="0.428667" stroke-linecap="round" stroke-linejoin="round"/>
<path d="M227.57 90.8601L230.309 94.9067L228.745 96.7328L231.874 98.5632L231.746 107.827" fill="#3EF47E"/>
<path d="M227.57 90.8601L230.309 94.9067L228.745 96.7328L231.874 98.5632L231.746 107.827" stroke="#134153" stroke-width="0.428667" stroke-linecap="round" stroke-linejoin="round"/>
<path d="M232.852 113.982C232.852 113.982 233.928 124.751 233.928 126.122C234.027 127.563 234.223 128.995 234.515 130.409C235.415 130.101 236.331 129.839 237.258 129.624C237.94 129.526 238.823 128.549 238.823 128.549C238.823 128.549 235.201 121.008 234.712 119.834C234.223 118.659 232.852 113.982 232.852 113.982Z" fill="#3EF47E" stroke="#134153" stroke-width="0.428667" stroke-linecap="round" stroke-linejoin="round"/>
<path d="M225.402 95.7126L224.973 99.0048L230.546 108.058C232.261 110.845 236.976 114.394 236.976 114.394L237.263 120.279L232.548 117.116C231.367 116.06 230.29 114.893 229.333 113.631C228.192 111.985 224.339 101.221 224.266 100.771C224.193 100.321 223.91 99.0562 223.91 99.0562L221.698 97.9803L221.27 96.017L222.984 94.731L225.402 95.7126Z" fill="#134153"/>
<path d="M223.892 89.1198C223.892 89.1198 225.752 90.6844 226.095 91.6146C226.438 92.5448 227.758 96.4114 227.81 96.7586C227.833 96.9403 227.866 97.1206 227.908 97.2987L223.502 95.6827L222.327 96.6129L220.81 100.282C220.81 100.282 219.001 98.4218 218.705 97.8346C218.269 96.5475 217.954 95.223 217.762 93.878C217.762 93.4493 220.599 89.8657 221.62 88.9355C222.64 88.0052 223.892 89.1198 223.892 89.1198Z" fill="#ECFEF2" stroke="#134153" stroke-width="0.428667" stroke-linecap="round" stroke-linejoin="round"/>
<path d="M223.7 88.6268C223.981 89.6201 224.178 90.6354 224.287 91.6618C224.246 93.0578 224.103 94.449 223.859 95.8242C223.713 96.1671 223.516 97.1102 223.173 97.1102C222.83 97.1102 219.109 94.9668 218.818 94.5639C218.526 94.1609 223.271 87.9581 223.271 87.9581L223.7 88.6268Z" fill="#ECFEF2" stroke="#134153" stroke-width="0.428667" stroke-linecap="round" stroke-linejoin="round"/>
<path d="M223.424 89.3684L221.563 96.0599L219.355 94.9582L222.528 88.8197L223.424 89.3684Z" fill="#134153" stroke="#134153" stroke-width="0.428667" stroke-linecap="round" stroke-linejoin="round"/>
<path d="M213.419 88.8755C213.419 88.8755 212.441 88.0181 212 87.7009C211.558 87.3837 210.825 84.7002 210.825 84.7002V86.7578C210.293 86.0631 209.819 85.3263 209.406 84.5545C209.064 83.77 209.797 81.2752 209.994 80.7351C210.191 80.195 210.581 78.0431 211.314 77.3572C212.047 76.6713 215.279 74.8109 216.698 74.8109C218.117 74.8109 222.669 76.0369 223.355 76.577C224.041 77.1171 226.489 80.7865 226.489 81.5667C226.489 82.3469 226.635 84.3102 226.879 84.7002C227.123 85.0903 228.006 85.7762 227.758 86.5092C227.561 87.0264 227.28 87.5074 226.926 87.9324L226.583 87.3923C226.244 87.8503 225.868 88.2803 225.46 88.6783C225.126 88.9567 224.744 89.1717 224.333 89.3127C223.814 89.3919 223.292 89.442 222.768 89.4627L222.961 87.6495C222.961 87.6495 216.797 83.1613 216.647 83.097C216.497 83.0327 213.616 86.3763 213.616 86.3763L213.419 88.8755Z" fill="#134153" stroke="#134153" stroke-width="0.428667" stroke-linecap="round" stroke-linejoin="round"/>
<path d="M223.736 86.0291C223.736 86.0291 224.165 84.3702 224.98 84.6788C225.794 84.9874 225.914 87.0622 225.19 87.8938C224.736 88.4005 224.167 88.7902 223.531 89.0298C223.531 89.0298 220.959 94.2124 220.217 94.6239C219.475 95.0354 217.521 95.4555 217.109 95.2454C216.698 95.0354 214.207 92.8663 214.207 92.8663L212.445 85.7333L216.072 81.4467L222.909 84.4473L223.736 86.0291Z" fill="#ECFEF2" stroke="#134153" stroke-width="0.428667" stroke-linecap="round" stroke-linejoin="round"/>
<path d="M215.426 86.4749L215.816 90.0971L217.676 89.8056" stroke="#134153" stroke-width="0.428667" stroke-linecap="round" stroke-linejoin="round"/>
<path d="M215.867 91.6617L218.851 91.1259L219.88 91.4173" stroke="#134153" stroke-width="0.428667" stroke-linecap="round" stroke-linejoin="round"/>
<path d="M218.701 92.1034L216.352 92.5449" stroke="#134153" stroke-width="0.428667" stroke-linecap="round" stroke-linejoin="round"/>
<path d="M216.646 86.2778L217.431 88.2368L219.87 88.0139C220.095 87.9924 220.31 87.91 220.492 87.7756C220.674 87.6412 220.816 87.4598 220.903 87.2509C221.096 86.7794 221.332 86.2178 221.332 86.0849C221.379 85.8406 221.182 85.399 221.036 85.399C220.89 85.399 216.582 86.0335 216.582 86.0335L216.646 86.2778Z" fill="#134153" stroke="#134153" stroke-width="0.428667" stroke-linecap="round" stroke-linejoin="round"/>
<path d="M216.599 86.0333L215.278 86.2777L215.424 88.421L213.028 88.7639L212.098 87.4779C212.098 87.4779 212.098 86.7449 212.291 86.7449C212.483 86.7449 214.837 86.3162 214.837 86.3162L216.599 86.0333Z" fill="#134153" stroke="#134153" stroke-width="0.428667" stroke-linecap="round" stroke-linejoin="round"/>
<path d="M221.055 85.399L224.141 84.9575" stroke="#134153" stroke-width="0.428667" stroke-linecap="round" stroke-linejoin="round"/>
<path d="M220.86 84.8116H219.296C219.15 84.8116 217.152 85.789 217.152 85.789" stroke="#134153" stroke-width="0.428667" stroke-linecap="round" stroke-linejoin="round"/>
<path d="M215.278 86.2778C214.604 85.8483 213.826 85.6125 213.027 85.5962" stroke="#134153" stroke-width="0.428667" stroke-linecap="round" stroke-linejoin="round"/>
<path d="M235.3 111.046L234.91 96.3643L236.526 111.599L235.3 111.046Z" fill="#134153"/>
<path d="M208.281 95.1897C208.281 95.1897 211.903 99.4764 212.294 101.843C212.684 104.209 213.078 105.859 213.078 105.859" stroke="#134153" stroke-width="0.428667" stroke-linecap="round" stroke-linejoin="round"/>
<path d="M206.031 95.0912C206.031 95.0912 208.479 96.0685 209.161 97.5389" stroke="#134153" stroke-width="0.428667" stroke-linecap="round" stroke-linejoin="round"/>
<path d="M211.414 103.214L208.379 103.999" stroke="#134153" stroke-width="0.428667" stroke-linecap="round" stroke-linejoin="round"/>
<path d="M202.992 96.3643C204.143 97.0604 205.062 98.0823 205.633 99.3006" stroke="#134153" stroke-width="0.428667" stroke-linecap="round" stroke-linejoin="round"/>
<path d="M198.392 95.777L193.574 95.2798C193.574 95.2798 195.362 97.7318 195.362 98.9063C195.362 100.081 193.574 100.741 193.574 100.741L199.666 102.627C199.968 101.609 200.134 100.555 200.159 99.4936C200.159 97.9289 198.392 95.777 198.392 95.777Z" fill="#ECFEF2" stroke="#134153" stroke-width="0.428667" stroke-linecap="round" stroke-linejoin="round"/>
<path d="M193.832 95.8112C193.832 95.8112 192.778 93.4321 192.512 92.6391C192.246 91.8461 188.813 91.8461 187.93 91.8461C187.047 91.8461 186.785 93.2521 186.785 94.3109C186.785 95.3697 187.312 99.3349 188.898 99.6864C190.297 99.9444 191.71 100.12 193.129 100.214L196.04 100.865C196.04 100.865 196.533 98.7219 196.336 97.7317C196.139 96.7414 193.832 95.8112 193.832 95.8112Z" fill="#ECFEF2" stroke="#134153" stroke-width="0.428667" stroke-linecap="round" stroke-linejoin="round"/>
<path d="M191.454 89.7284L191.102 92.9905L192.247 97.483L189.782 98.1002L188.02 92.7247L182.559 91.9317L182.469 87.9666L191.454 89.7284Z" fill="#73877B" stroke="#134153" stroke-width="0.428667" stroke-linecap="round" stroke-linejoin="round"/>
<path d="M182.559 91.9318L181.149 92.0218L180.531 88.4081L182.469 87.9666L182.559 91.9318Z" fill="#134153" stroke="#134153" stroke-width="0.428667" stroke-linecap="round" stroke-linejoin="round"/>
<path d="M182.185 89.4369C182.185 89.9556 181.962 90.38 181.692 90.38C181.422 90.38 181.199 89.9513 181.199 89.4369C181.199 88.9225 181.418 88.4982 181.692 88.4982C181.967 88.4982 182.185 88.9183 182.185 89.4369Z" fill="#ECFEF2"/>
<path d="M189.256 89.9943L186.787 89.5528L186.5 88.7598L189.724 89.3899L189.256 89.9943Z" fill="#134153" stroke="#134153" stroke-width="0.428667" stroke-linecap="round" stroke-linejoin="round"/>
<path d="M186.609 92.9005C186.609 92.9005 188.813 92.639 188.898 93.1663C188.984 93.6936 189.164 94.2251 188.898 94.2251C188.633 94.2251 186.785 94.3108 186.785 94.3108L186.609 92.9005Z" fill="#ECFEF2" stroke="#134153" stroke-width="0.428667" stroke-linecap="round" stroke-linejoin="round"/>
<path d="M186.7 92.5491L186.785 94.3109H188.547L188.637 95.104L185.726 94.8382L185.375 92.4591L186.7 92.5491Z" fill="#134153" stroke="#134153" stroke-width="0.428667" stroke-linecap="round" stroke-linejoin="round"/>
<path d="M185.73 94.8382C185.73 94.8382 185.374 94.6625 185.301 95.0183C185.229 95.3741 185.653 96.4243 185.653 96.4243L189.177 96.7801C189.177 96.7801 190.673 95.897 190.673 95.6313C190.581 95.2881 190.436 94.9613 190.244 94.6625L188.658 95.0911L185.73 94.8382Z" fill="#ECFEF2" stroke="#134153" stroke-width="0.428667" stroke-linecap="round" stroke-linejoin="round"/>
<path d="M185.641 96.4243C185.688 96.7454 185.718 97.0688 185.731 97.3931C185.731 97.7489 187.051 98.1004 187.051 98.1004C187.051 98.1004 189.516 98.3662 189.782 98.1004C190.047 97.8346 190.84 97.1316 190.84 96.7801C190.84 96.4286 190.309 95.9871 190.309 95.9871L189.164 96.7801L185.641 96.4243Z" fill="#ECFEF2" stroke="#134153" stroke-width="0.428667" stroke-linecap="round" stroke-linejoin="round"/>
<path d="M186.082 97.8346L186.939 99.0691C186.939 99.0691 189.057 99.3349 189.408 99.3349C189.76 99.3349 190.905 98.2761 190.905 98.2761L190.729 97.2173L189.76 98.1003H187.029L186.082 97.8346Z" fill="#ECFEF2" stroke="#134153" stroke-width="0.428667" stroke-linecap="round" stroke-linejoin="round"/>
<path d="M193.48 95.6312C193.48 95.6312 193.394 92.9006 193.394 92.2833C193.394 91.666 193.038 90.963 192.687 90.963C192.335 90.963 190.046 91.1388 189.78 91.3145C189.514 91.4903 189.352 93.7836 189.352 93.7836L190.235 94.6624L191.113 93.4321L191.906 96.2485" fill="#ECFEF2"/>
<path d="M193.48 95.6312C193.48 95.6312 193.394 92.9006 193.394 92.2833C193.394 91.666 193.038 90.963 192.687 90.963C192.335 90.963 190.046 91.1388 189.78 91.3145C189.514 91.4903 189.352 93.7836 189.352 93.7836L190.235 94.6624L191.113 93.4321L191.906 96.2485" stroke="#134153" stroke-width="0.428667" stroke-linecap="round" stroke-linejoin="round"/>
<path d="M191.105 93.4322L191.989 92.3734" stroke="#134153" stroke-width="0.428667" stroke-linecap="round" stroke-linejoin="round"/>
</svg>
